<svg width="38" height="38" viewBox="0 0 49 49" fill="none" xmlns="http://www.w3.org/2000/svg">
<path d="M24.5 0.5C21.671 0.5 18.9579 1.62381 16.9575 3.62419C14.9571 5.62458 13.8333 8.33769 13.8333 11.1667C13.8333 13.9956 14.9571 16.7088 16.9575 18.7091C18.9579 20.7095 21.671 21.8333 24.5 21.8333C27.329 21.8333 30.0421 20.7095 32.0425 18.7091C34.0429 16.7088 35.1667 13.9956 35.1667 11.1667C35.1667 8.33769 34.0429 5.62458 32.0425 3.62419C30.0421 1.62381 27.329 0.5 24.5 0.5ZM16.9167 30.7656C16.6981 30.7551 16.4745 30.7704 16.2552 30.8177C8.66854 32.4524 0.5 36.1293 0.5 41.8333V45.8333C0.5 47.3053 1.69467 48.5 3.16667 48.5H45.8333C47.3053 48.5 48.5 47.3053 48.5 45.8333V41.8333C48.5 36.1293 40.3288 32.4524 32.7448 30.8177C31.8648 30.6284 30.9576 30.9174 30.3229 31.5521L26.3854 35.4896C25.3428 36.5323 23.6546 36.5323 22.6146 35.4896L18.6771 31.5521C18.2011 31.0761 17.5723 30.7973 16.9167 30.7656Z" fill="url(#paint0_linear_6_5)"/>
<defs>
<linearGradient id="paint0_linear_6_5" x1="24.5" y1="0.82" x2="24.5" y2="48.5" gradientUnits="userSpaceOnUse">
<stop offset="0.520833" stop-color="#F4656E"/>
<stop offset="1" stop-color="#B794F4"/>
</linearGradient>
</defs>
</svg>
