<svg width="38" height="38" viewBox="0 0 49 49" fill="none" xmlns="http://www.w3.org/2000/svg">
<path d="M45.8287 20.7914L48.6829 9.8184C48.7656 9.47549 48.6829 9.13259 48.4347 8.82778C48.1865 8.56108 47.8556 8.40867 47.442 8.40867H7.11145C5.99461 3.72228 2.89226 1.16953 2.76816 1.05523C2.23042 0.674224 1.4445 0.712325 1.03085 1.16953C0.575839 1.66484 0.617203 2.38876 1.11358 2.76976C1.15494 2.80787 4.09183 5.24631 4.8364 9.7041L8.43512 31.612C8.84877 34.0505 11.0825 35.8412 13.7712 35.8412H38.3417C39.0449 35.8412 39.5827 35.3459 39.5827 34.6982C39.5827 34.0505 39.0449 33.5552 38.3417 33.5552H13.7712C12.3234 33.5552 11.1238 32.6026 10.917 31.2691L10.8756 31.0405L37.9281 27.4209C41.8164 26.9256 44.9187 24.2967 45.8287 20.7914ZM18.9004 22.887C18.9004 23.5347 18.3626 24.03 17.6594 24.03C16.9562 24.03 16.4185 23.5347 16.4185 22.887V13.7428C16.4185 13.0951 16.9562 12.5998 17.6594 12.5998C18.3626 12.5998 18.9004 13.0951 18.9004 13.7428V22.887ZM27.1733 22.887C27.1733 23.5347 26.6356 24.03 25.9324 24.03C25.2292 24.03 24.6914 23.5347 24.6914 22.887V13.7428C24.6914 13.0951 25.2292 12.5998 25.9324 12.5998C26.6356 12.5998 27.1733 13.0951 27.1733 13.7428V22.887ZM35.4462 22.887C35.4462 23.5347 34.9085 24.03 34.2053 24.03C33.5021 24.03 32.9643 23.5347 32.9643 22.887V13.7428C32.9643 13.0951 33.5021 12.5998 34.2053 12.5998C34.9085 12.5998 35.4462 13.0951 35.4462 13.7428V22.887ZM11.0411 43.8424C11.0411 46.5856 13.4402 48.7955 16.4185 48.7955C19.3967 48.7955 21.7959 46.5856 21.7959 43.8424C21.7959 41.0991 19.3967 38.8893 16.4185 38.8893C13.4402 38.8893 11.0411 41.0991 11.0411 43.8424ZM19.314 43.8424C19.314 45.3283 18.0317 46.5094 16.4185 46.5094C14.8053 46.5094 13.523 45.3283 13.523 43.8424C13.523 42.3564 14.8053 41.1753 16.4185 41.1753C18.0317 41.1753 19.314 42.3564 19.314 43.8424ZM34.2053 38.8893C31.227 38.8893 28.8279 41.0991 28.8279 43.8424C28.8279 46.5856 31.227 48.7955 34.2053 48.7955C37.1835 48.7955 39.5827 46.5856 39.5827 43.8424C39.5827 41.0991 37.1835 38.8893 34.2053 38.8893ZM34.2053 46.5094C32.5921 46.5094 31.3098 45.3283 31.3098 43.8424C31.3098 42.3564 32.5921 41.1753 34.2053 41.1753C35.8185 41.1753 37.1008 42.3564 37.1008 43.8424C37.1008 45.3283 35.8185 46.5094 34.2053 46.5094Z" fill="url(#paint0_linear_5_3)"/>
<defs>
<linearGradient id="paint0_linear_5_3" x1="9.5" y1="7" x2="11" y2="49" gradientUnits="userSpaceOnUse">
<stop stop-color="#F4656E"/>
<stop offset="0.598958" stop-color="#9E6EA7"/>
</linearGradient>
</defs>
</svg>
