<svg width="38" height="38" viewBox="0 0 38 38" fill="none" xmlns="http://www.w3.org/2000/svg">
<path d="M36.25 9.29688H24.25V4C24.25 3.17031 23.5797 2.5 22.75 2.5H3.625V0.625C3.625 0.41875 3.45625 0.25 3.25 0.25H0.625C0.41875 0.25 0.25 0.41875 0.25 0.625V37.375C0.25 37.5813 0.41875 37.75 0.625 37.75H3.25C3.45625 37.75 3.625 37.5813 3.625 37.375V25H15.25V30.2969C15.25 31.1266 15.9203 31.7969 16.75 31.7969H36.25C37.0797 31.7969 37.75 31.1266 37.75 30.2969V10.7969C37.75 9.96719 37.0797 9.29688 36.25 9.29688Z" fill="url(#paint0_linear_2_7)"/>
<defs>
<linearGradient id="paint0_linear_2_7" x1="38" y1="19" x2="-7.5" y2="19" gradientUnits="userSpaceOnUse">
<stop stop-color="#F4656E"/>
<stop offset="1" stop-color="#9E6EA7"/>
</linearGradient>
</defs>
</svg>
