<svg width="48" height="48" viewBox="0 0 24 21" fill="none" xmlns="http://www.w3.org/2000/svg">
<path d="M3.254 0C2.39204 0 1.56539 0.34241 0.955901 0.951903C0.346408 1.5614 0.0039978 2.38805 0.0039978 3.25V13.75C0.0039978 14.612 0.346408 15.4386 0.955901 16.0481C1.56539 16.6576 2.39204 17 3.254 17H20.751C21.613 17 22.4396 16.6576 23.0491 16.0481C23.6586 15.4386 24.001 14.612 24.001 13.75V3.25C24.001 2.38805 23.6586 1.5614 23.0491 0.951903C22.4396 0.34241 21.613 0 20.751 0H3.254ZM4 19.75C4 19.5511 4.07902 19.3603 4.21967 19.2197C4.36032 19.079 4.55109 19 4.75 19H19.25C19.4489 19 19.6397 19.079 19.7803 19.2197C19.921 19.3603 20 19.5511 20 19.75C20 19.9489 19.921 20.1397 19.7803 20.2803C19.6397 20.421 19.4489 20.5 19.25 20.5H4.75C4.55109 20.5 4.36032 20.421 4.21967 20.2803C4.07902 20.1397 4 19.9489 4 19.75Z" fill="url(#paint0_linear_2_5)"/>
<defs>
<linearGradient id="paint0_linear_2_5" x1="24" y1="10" x2="-2" y2="10" gradientUnits="userSpaceOnUse">
<stop stop-color="#F4656E"/>
<stop offset="1" stop-color="#C08DE0" stop-opacity="0.85"/>
</linearGradient>
</defs>
</svg>
