<svg width="202" height="203" viewBox="0 0 202 203" fill="none" xmlns="http://www.w3.org/2000/svg">
<path d="M35.5106 70.0203C18.1131 70.0203 4.15405 84.0363 4.15405 101.412C4.15405 118.789 18.1131 132.804 35.5106 132.804C46.1936 132.804 50.3696 125.262 50.3696 125.262V132.123H66.8671V101.412C66.8671 84.0353 52.9081 70.0198 35.5106 70.0198V70.0203ZM35.5106 86.4333C43.8051 86.4333 50.4541 93.1213 50.4541 101.413C50.4541 109.704 43.8051 116.392 35.5106 116.392C27.2161 116.392 20.5671 109.704 20.5671 101.413C20.5671 93.1213 27.2161 86.4333 35.5106 86.4333Z" fill="white"/>
<path d="M70.8571 48.4019V101.412C70.8571 118.788 84.8266 132.815 102.224 132.815C119.622 132.815 133.555 118.788 133.555 101.412C133.555 84.0354 119.622 70.0089 102.224 70.0089C91.5411 70.0089 87.3506 77.5714 87.3506 77.5714V48.4009L70.8571 48.4019ZM102.224 86.4314C110.519 86.4314 117.17 93.1214 117.17 101.413C117.17 109.704 110.519 116.394 102.224 116.394C93.9296 116.394 87.2785 109.704 87.2785 101.413C87.2785 93.1214 93.9296 86.4314 102.224 86.4314Z" fill="white"/>
<path d="M167.602 70.0203C150.205 70.0203 136.246 84.0363 136.246 101.412C136.246 118.789 150.205 132.804 167.602 132.804C182.619 132.804 195.079 122.361 198.206 108.328H180.862C178.374 113.114 173.391 116.391 167.602 116.391C159.308 116.391 152.659 109.703 152.659 101.412C152.659 93.1203 159.308 86.4323 167.602 86.4323C173.409 86.4323 178.417 89.7224 180.897 94.5313H198.206C195.091 80.4813 182.631 70.0198 167.602 70.0198L167.602 70.0203Z" fill="white"/>
</svg>
