<svg width="498" height="176" viewBox="0 0 498 176" fill="none" xmlns="http://www.w3.org/2000/svg">
<g clip-path="url(#clip0_7_17)">
<path d="M97.4 28.5C103.9 20.5 107 10.3 106.1 0.0999756C96.1 1.09998 86.8 5.89998 80.2 13.5C73.6 20.9 70.2 30.6 70.9 40.5C81 40.9 90.9 36.4 97.4 28.5Z" fill="white"/>
<path d="M97.4 27.8C103.7 20 106.8 10 106.1 0C96.1 1 86.8 5.79999 80.2 13.4C73.6 20.8 70.2 30.5 70.9 40.4C81.2 40.7 91 36 97.4 27.8Z" fill="white"/>
<path d="M105.9 42.1C91.5 41.2 79.2 50.3 72.6 50.3C66 50.3 55.2 42.5 43.7 42.7C28.5 43.1 14.7 51.6 7.5 64.9C-8.1 91.7 3.4 131.7 18.6 153.1C25.9 164.2 34.7 175.3 46.4 175.3C58.1 175.3 61.7 168.2 75.1 168.2C88.5 168.2 92.3 175.3 104 175.1C115.7 174.9 123.6 164 130.9 153.5C136.1 145.9 140.1 137.5 142.9 128.7C128.7 122.4 119.6 108.3 119.7 92.8C119.9 79.2 127.1 66.6 138.7 59.5C131.3 49 119.4 42.5 106.6 42.1" fill="white"/>
<path d="M219.6 27.9V55.6H241.8V74.7H219.6V139.7C219.6 149.8 224 154.5 233.9 154.5C236.6 154.5 239.2 154.3 241.9 153.9V172.9C237.5 173.7 233 174.1 228.5 174C204.6 174 195.2 165 195.2 142.2V75H178.4V55.6H195.5V27.9H219.6Z" fill="white"/>
<path d="M323.1 173.7H297.3L254.7 55.6H280.5L310.1 149.8L340.1 55.6H365.4L323.1 173.7Z" fill="white"/>
<path d="M497.4 102.9H450.4V55.8H428V102.9H381.2V125H428V172.4H450.4V125H497.4V102.9Z" fill="white"/>
</g>
<defs>
<clipPath id="clip0_7_17">
<rect width="497.3" height="175.3" fill="white"/>
</clipPath>
</defs>
</svg>
