<?xml version="1.0" encoding="utf-8"?>
<!-- Generator: Adobe Illustrator 27.5.0, SVG Export Plug-In . SVG Version: 6.00 Build 0)  -->
<svg version="1.1" id="Layer_1" xmlns="http://www.w3.org/2000/svg" xmlns:xlink="http://www.w3.org/1999/xlink" x="0px" y="0px"
	 viewBox="0 0 1262.8 270.2" style="enable-background:new 0 0 1262.8 270.2;" xml:space="preserve">
<style type="text/css">
	.st0{fill:#5C2D91;}
	.st1{fill:#FFFFFF;}
	.st2{fill:none;}
</style>
<g>
	<path class="st0" d="M1186.3,243.5H76.5c-31.4,0-56.8-25.4-56.8-56.8v-160h1223.4v159.9C1243.1,218,1217.7,243.5,1186.3,243.5z"/>
	<path class="st1" d="M517.2,234.7H76.5c-26.6,0-48.1-21.5-48.1-48.1V35.5h536.8v151.2C565.2,213.2,543.7,234.7,517.2,234.7z"/>
	<path class="st0" d="M134.4,79.8c-25.3,0-39.8,15.3-45.4,22.7V47.3c0-3-2.4-5.3-5.3-5.3c-3,0-5.3,2.4-5.3,5.3v90.5
		c0,26.3,21.4,54.7,56.1,54.7c33.6,0,56.1-29.4,56.1-56.7C190.5,101.2,161.4,79.8,134.4,79.8z M134.3,181.2
		c-25-0.1-45.2-20.4-45.1-45.4c0.2-25,20.4-45.1,45.4-44.9s45,20.4,44.8,45.4C179.3,161.1,159.1,181.2,134.3,181.2z M298.2,130.5
		h-52.7c-3.1,0-5.5,2.4-5.5,5.6c0,3.1,2.4,5.5,5.5,5.5H304c2.9,0.2,5.3-1.9,5.6-4.8v-0.7c0-31.1-25.2-56.3-56.2-56.3
		s-56.1,25.3-56.1,56.3s25.2,56.3,56.2,56.3c19.5,0,37.6-10.1,47.8-26.7c1.7-2.5,1-5.9-1.6-7.6c-2.5-1.7-5.9-1-7.6,1.5
		c0,0,0,0.1-0.1,0.1c-13,21.3-40.8,28.1-62.1,15.1s-28.1-40.9-15-62.3c13-21.4,40.8-28.1,62.1-15.1
		C288.6,104.6,296.4,116.7,298.2,130.5L298.2,130.5z M330.1,192.4c6,0,10.5-4.8,10.8-9.1V89.1c-0.3-4.3-4.8-9-10.7-9.1h-0.1
		c-6,0-10.4,4.7-10.7,9.2v94.1C319.7,187.8,324.2,192.4,330.1,192.4L330.1,192.4z M504.4,158.3V88.8c-0.3-4.3-4.7-9-10.7-9
		c-5.9,0-10.4,4.8-10.7,9.2v69.4c0,1.9-1.3,8-6.9,10.7c-11.8,5.6-17.8-4.2-18.1-4.6l-43.2-68.2c-5.7-9.9-21.8-21.7-42.9-13.8
		c-20.7,8.6-21.2,30.2-21.2,30.5v70.9c0.3,4.1,4.5,8.7,10.8,8.7c5.8,0,10.6-4.5,10.6-9.9v-67.8c0-0.5-0.7-12.2,13.3-13.5
		c8.1-0.4,12.2,8,12.3,8.2c1.7,2.6,39.4,62.4,43.4,68.5c3.1,4.8,13.2,14.4,28,14.4c5.1-0.1,10-1,14.7-3.1
		C505.7,180.5,504.5,158.5,504.4,158.3z"/>
	<path class="st1" d="M663.6,127.2c-9.8,0-16.9-2.1-21-6.3c-2.1-2-3.3-4.6-3.5-7.5c0-0.1-0.5-8.5,5.2-14.7
		c4.2-4.5,10.7-6.8,19.3-6.8c8.2,0,14.4,2.3,18.6,6.8c6.3,6.8,5.6,16.7,5.5,16.9c0,3.8,3.1,7,7,7c3.8,0,7-3.1,7-7
		c0-37.1-36.6-37.6-38.2-37.6h-0.2c-37.2,0-38.3,31.6-38.3,35.3c0,10.5,8.1,28.3,38.5,28.3c10.3,0,17.7,2.3,21.9,6.6
		c2.5,2.6,3.9,6.1,3.8,9.7c0.1,1.9-0.1,8.6-5.1,13.7c-4.3,4.5-11.2,6.8-20.4,6.8h-0.2c-8.2,0-14.6-2.4-18.9-6.9
		c-3.8-4.2-5.8-9.6-5.6-15.3c0-3.9-3.1-7.1-7.1-7.1s-7.1,3.1-7.1,7.1c-0.3,9.4,3.1,18.4,9.7,25.1c7.2,7.3,17.3,11.4,28.8,11.4
		c29.6,0,40.1-18.7,40.1-34.7C703.7,139.3,687.9,127.2,663.6,127.2L663.6,127.2z M1141.6,127.2c-9.8,0-16.9-2.1-21-6.3
		c-2.1-2-3.3-4.7-3.5-7.5c0-0.1-0.5-8.5,5.2-14.7c4.2-4.5,10.7-6.8,19.3-6.8c8.2,0,14.4,2.3,18.6,6.8c6.3,6.8,5.6,16.7,5.5,16.9
		c0.2,3.8,3.4,6.9,7.3,6.7c3.7-0.1,6.6-3.1,6.7-6.7c0-37.1-36.6-37.6-38.2-37.6h-0.2c-37.2,0-38.3,31.6-38.3,35.3
		c0,10.5,8.1,28.3,38.5,28.3c10.2,0,17.7,2.3,21.9,6.6c2.5,2.5,3.9,6.1,3.8,9.7c0.1,1.9-0.1,8.6-5.1,13.7
		c-4.3,4.5-11.2,6.8-20.4,6.8h-0.2c-8.3,0-14.6-2.4-18.9-6.9c-3.8-4.2-5.8-9.6-5.6-15.3c0-3.9-3.1-7.1-7.1-7.1s-7.1,3.1-7.1,7.1
		c-0.3,9.4,3.1,18.4,9.7,25.1c7.2,7.3,17.3,11.4,28.8,11.4c29.6,0,40.1-18.7,40.1-34.7C1181.7,139.3,1165.9,127.2,1141.6,127.2
		L1141.6,127.2z M756.7,77.9c-22.5,0-38.4,15.8-38.4,38.5l0.1,66.8c-0.2,3.9,3,7.3,6.9,7.4s7.3-3,7.4-6.9v-28.8h23.9
		c21.2-0.3,38.2-17.8,37.8-39.1C794.2,95.1,777.4,78.2,756.7,77.9L756.7,77.9z M756.5,140.9h-23.8l-0.1-24.4
		c0-14.7,9.6-24.6,23.9-24.6c13.5,0,24.5,10.9,24.5,24.5C781,129.9,770.1,140.9,756.5,140.9z M863.3,77.9
		c-31.6,0-57.2,25.6-57.2,57.3c0,31.6,25.6,57.3,57.2,57.3c31.6,0,57.2-25.6,57.2-57.3C920.6,103.6,895,78,863.3,77.9L863.3,77.9z
		 M863.3,178.7c-23.9,0-43.3-19.4-43.3-43.3S839.4,92,863.3,92c23.9,0,43.3,19.4,43.3,43.3C906.7,159.2,887.3,178.6,863.3,178.7z
		 M984.4,152.7c19.8-7.9,29.5-30.3,21.8-50.2c-5.9-14.8-20-24.5-35.9-24.5c-22.7,0-38.5,16-38.5,38.8l0.1,66.6c0,4,3.2,7.2,7.2,7.2
		s7.2-3.2,7.2-7.2v-27.9h22.8l19,31.1c2,3.5,6.4,4.7,9.9,2.7c1.7-1,2.9-2.5,3.4-4.5c0.5-1.8,0.3-3.8-0.7-5.5L984.4,152.7
		L984.4,152.7z M946,141.2v-24.6c0-14.8,9.7-24.7,24-24.7c13.5,0,24.6,11,24.6,24.6s-11,24.6-24.6,24.6h-24V141.2z M1095.2,87.4
		c0,3.9-3.2,7.2-7.2,7.2h-24.9v88.6c0,4-3.2,7.2-7.2,7.2s-7.2-3.2-7.2-7.2V94.6h-24.8c-3.9,0-7.2-3.2-7.2-7.2s3.2-7.2,7.2-7.2h64.1
		C1091.9,80.1,1095.2,83.4,1095.2,87.4L1095.2,87.4z"/>
</g>
<rect class="st2" width="1262.8" height="270.2"/>
</svg>
