<?xml version="1.0" encoding="utf-8"?>
<!-- Generator: Adobe Illustrator 16.0.0, SVG Export Plug-In . SVG Version: 6.00 Build 0)  -->
<!DOCTYPE svg PUBLIC "-//W3C//DTD SVG 1.1//EN" "http://www.w3.org/Graphics/SVG/1.1/DTD/svg11.dtd">
<svg version="1.1" id="Layer_1" xmlns="http://www.w3.org/2000/svg" xmlns:xlink="http://www.w3.org/1999/xlink" x="0px" y="0px"
	 width="3000px" height="3000px" viewBox="0 0 3000 3000" enable-background="new 0 0 3000 3000" xml:space="preserve">
<g>
	<path fill="#FFFFFF" d="M1166.789,1184.885c-9.088-7.906-17.368-15.287-25.859-22.446
		c-102.304-86.27-217.289-150.407-342.988-195.571c-100.112-35.976-203.354-55.604-309.839-56.847
		c-17.063-0.202-34.158,1.918-51.242,3.09c-44.72,3.069-89.359,6.998-133.06,17.761c-55.14,13.581-97.679,43.165-121.417,96.306
		c-25.455,56.999,1.776,115.693,61.652,128.839c21.274,4.675,43.993,4.25,65.994,3.786c35.966-0.757,63.733-15.499,75.981-51.525
		c73.224-6.998,144.357,2.797,214.977,18.739c-17.468,59.523-31.341,118.51-35.461,179.385c-0.505,7.392-3.463,9.905-10.461,12.097
		c-34.521,10.773-69.387,20.89-102.92,34.259c-39.126,15.59-75.293,36.945-102.808,70.053
		c-29.827,35.875-37.683,75.698-19.871,119.65c9.279,22.9,22.607,43.338,38.156,62.33
		c48.174,58.826,107.555,104.029,173.821,140.318c14.146,7.773,22.477,16.227,27.061,32.875
		c16.195,58.938,66.419,89.633,127.283,81.051c24.405-3.443,43.923-16.086,62.351-31.271c2.453-2.01,6.169-3.998,9.087-3.705
		c22.88,2.182,45.689,5.078,68.569,7.381c9.249,0.949,18.589,0.949,28.221,1.383c0,11.26-1.039,21.709,0.233,31.857
		c2.15,17.113,3.452,34.895,9.198,50.949c18.811,52.627,69.801,87.289,127.919,87.229c427.491-0.434,854.99-0.182,1282.461-0.111
		c4.15,0,8.279,0.465,12.41,0.264c6.724-0.334,10.237,2.857,13.61,8.674c19.72,33.916,46.487,60.268,84.522,72.789
		c27.252,8.955,54.231,8.602,78.516-9.047c19.537-14.188,27.898-35.158,32.563-57.918c5.149-25.061,8.663-50.586,15.417-75.213
		c14.621-53.322,30.988-106.18,46.295-159.311c1.525-5.262,3.798-7.684,9.037-8.938c105.253-24.869,180.546-87.783,228.346-183.543
		c43.902-88.027,19.326-192.866-34.905-249.641c-78.263-81.947-204.719-100.042-299.914-38.46
		c-9.31,6.028-18.084,12.884-27.101,19.326c-3.514-2.605-6.775-5.129-10.167-7.502c-29.061-20.386-61.22-33.068-96.862-30.291
		c-40.802,3.18-81.523,8.481-121.973,14.813c-38.287,5.987-76.162,14.499-115.541,22.153c-2.07-3.049-5.401-8.239-9.066-13.187
		c-19.447-26.445-41.166-50.375-72.841-62.451c-47.719-18.194-95.67,5.806-108.392,54.434c-2.646,10.017-3.212,20.578-4.433,28.858
		c-18.438-6.785-36.684-15.176-55.827-20.205c-54.787-14.408-111.088-18.033-167.43-19.74c-46.325-1.414-92.691-1.121-138.754,5.24
		c-11.925,1.646-23.819,3.494-36.915,5.423c8.188-8.987,15.579-16.579,22.345-24.698c3.665-4.382,7.289-6.593,13.298-6.825
		c38.924-1.495,71.629-16.812,96.032-47.305c52.576-65.671,31.372-163.472-44.072-204.789
		c-41.591-22.769-84.17-23.818-127.265-3.665c-2.423-5.23-4.522-10.42-7.148-15.317c-25.838-48.284-80.493-74.567-137.552-66.166
		c-77.597,11.42-131.253,88.561-104.081,164.644c0.838,2.353,0.202,6.502-1.424,8.279
		C1193.041,1126.968,1175.957,1153.028,1166.789,1184.885L1166.789,1184.885z"/>
	
		<linearGradient id="SVGID_1_" gradientUnits="userSpaceOnUse" x1="1859.9258" y1="4046.1025" x2="1859.9258" y2="3428.3281" gradientTransform="matrix(1.9109 0 0 1.9109 -2054.2173 -5641.6035)">
		<stop  offset="0" style="stop-color:#1C5197"/>
		<stop  offset="0.121" style="stop-color:#1E599F"/>
		<stop  offset="0.31" style="stop-color:#236EB5"/>
		<stop  offset="0.543" style="stop-color:#2C91DA"/>
		<stop  offset="0.557" style="stop-color:#2D93DC"/>
		<stop  offset="0.708" style="stop-color:#2880C8"/>
		<stop  offset="1" style="stop-color:#1C5197"/>
	</linearGradient>
	<path fill="url(#SVGID_1_)" d="M1166.789,1184.885c9.178-31.857,26.263-57.917,47.759-81.413c1.625-1.777,2.251-5.927,1.423-8.279
		c-27.16-76.092,26.485-153.224,104.081-164.644c57.059-8.411,111.725,17.872,137.563,66.167c2.616,4.897,4.726,10.077,7.148,15.307
		c43.104-20.154,85.663-19.093,127.265,3.675c75.465,41.308,96.639,139.108,44.063,204.79c-24.394,30.493-57.068,45.8-96.022,47.304
		c-6.018,0.222-9.643,2.444-13.298,6.815c-6.775,8.119-14.156,15.711-22.355,24.697c13.096-1.928,25.011-3.776,36.926-5.422
		c46.063-6.361,92.418-6.654,138.754-5.24c56.331,1.695,112.633,5.331,167.42,19.729c19.144,5.039,37.389,13.439,55.826,20.214
		c1.223-8.279,1.808-18.841,4.433-28.857c12.743-48.627,60.684-72.628,108.402-54.434c31.675,12.077,53.394,36.007,72.86,62.44
		c3.635,4.958,6.968,10.147,9.047,13.197c39.369-7.663,77.254-16.165,115.531-22.153c40.459-6.331,81.17-11.632,121.973-14.813
		c35.633-2.786,67.803,9.906,96.893,30.292c3.371,2.373,6.633,4.896,10.137,7.491c9.017-6.442,17.801-13.297,27.141-19.326
		c95.154-61.592,221.621-43.488,299.873,38.45c54.242,56.786,78.809,161.614,34.906,249.62
		c-47.79,95.781-123.083,158.707-228.346,183.566c-5.211,1.25-7.492,3.674-9.027,8.936c-15.316,53.15-31.685,105.998-46.295,159.322
		c-6.765,24.627-10.258,50.15-15.398,75.213c-4.694,22.758-13.045,43.73-32.582,57.916c-24.295,17.65-51.273,18.004-78.525,9.047
		c-38.025-12.51-64.793-38.863-84.522-72.779c-3.373-5.816-6.886-9.018-13.611-8.674c-4.109,0.201-8.239-0.262-12.379-0.262
		c-427.5-0.07-854.99-0.324-1282.481,0.111c-58.129,0.061-109.118-34.613-127.919-87.23c-5.735-16.053-7.038-33.834-9.198-50.959
		c-1.272-10.168-0.233-20.598-0.233-31.846c-9.632-0.436-18.982-0.445-28.221-1.383c-22.87-2.313-45.68-5.221-68.569-7.383
		c-2.918-0.293-6.634,1.697-9.087,3.707c-18.428,15.176-37.945,27.828-62.351,31.27c-60.864,8.582-111.077-22.133-127.283-81.049
		c-4.584-16.639-12.914-25.102-27.061-32.875c-66.267-36.32-125.647-81.494-173.821-140.33
		c-15.549-18.992-28.867-39.42-38.156-62.318c-17.821-43.963-9.946-83.776,19.871-119.662
		c27.515-33.098,63.682-54.454,102.808-70.053c33.543-13.359,68.398-23.475,102.92-34.25c7.018-2.191,9.956-4.705,10.461-12.096
		c4.12-60.866,17.982-119.853,35.461-179.385c-70.619-15.933-141.753-25.728-214.967-18.73
		c-12.258,36.026-40.025,50.758-75.98,51.525c-22.012,0.465-44.73,0.879-66.005-3.786c-59.876-13.136-87.118-71.84-61.652-128.838
		c23.748-53.182,66.277-82.766,121.417-96.347c43.71-10.763,116.096-23.233,184.302-20.84
		c106.484,1.241,209.727,20.87,309.839,56.846c125.709,45.164,240.685,109.3,342.988,195.57
		C1149.411,1169.598,1157.701,1176.989,1166.789,1184.885L1166.789,1184.885z"/>
	<path opacity="0.25" fill="none" stroke="#FFFFFF" stroke-width="5" stroke-miterlimit="10" enable-background="new    " d="
		M1166.597,1191.246c9.087-31.563,26.011-57.402,47.315-80.676c1.614-1.757,2.231-5.876,1.403-8.208
		c-26.92-75.395,26.242-151.83,103.131-163.148c56.544-8.32,110.704,17.71,136.3,65.561c2.596,4.846,4.676,9.985,7.088,15.165
		c42.711-19.972,84.887-18.932,126.124,3.645c74.758,40.934,95.739,137.845,43.68,202.921
		c-24.193,30.22-56.585,45.386-95.185,46.871c-5.948,0.231-9.553,2.423-13.168,6.754c-6.703,8.038-14.045,15.57-22.152,24.476
		c12.984-1.918,24.758-3.746,36.592-5.372c45.648-6.311,91.561-6.594,137.481-5.2c55.817,1.687,111.613,5.281,165.905,19.559
		c18.973,4.987,37.057,13.308,55.332,20.032c1.202-8.209,1.768-18.68,4.382-28.604c12.622-48.183,60.139-71.962,107.424-53.939
		c31.371,11.965,52.908,35.673,72.193,61.865c3.604,4.917,6.907,10.056,8.977,13.075c38.985-7.583,76.556-16.014,114.46-21.941
		c40.096-6.28,80.454-11.53,120.893-14.69c35.33-2.757,67.187,9.824,95.982,30.028c3.353,2.343,6.594,4.847,10.058,7.422
		c8.925-6.391,17.649-13.176,26.878-19.144c94.317-61.027,219.611-43.095,297.168,38.096
		c53.746,56.271,78.101,160.149,34.582,247.349c-47.355,94.912-121.963,157.252-226.256,181.908
		c-5.189,1.213-7.432,3.625-8.936,8.855c-15.186,52.637-31.393,105.01-45.891,157.838c-6.705,24.424-10.168,49.697-15.288,74.537
		c-4.634,22.557-12.903,43.346-32.239,57.412c-24.092,17.477-50.81,17.83-77.838,8.955c-37.684-12.398-64.178-38.5-83.736-72.123
		c-3.353-5.756-6.805-8.936-13.489-8.604c-4.079,0.213-8.179-0.262-12.269-0.262c-423.622-0.07-847.205-0.324-1270.809,0.111
		c-57.593,0.061-108.119-34.281-126.748-86.422c-5.685-15.893-6.987-33.521-9.118-50.496c-1.262-10.076-0.222-20.416-0.222-31.572
		c-9.542-0.434-18.811-0.443-27.969-1.373c-22.668-2.271-45.275-5.16-67.943-7.32c-2.888-0.283-6.573,1.676-9.007,3.686
		c-18.266,15.023-37.591,27.564-61.784,30.967c-60.299,8.492-110.078-21.93-126.133-80.313
		c-4.522-16.488-12.793-24.889-26.808-32.563c-65.661-35.986-124.497-80.777-172.235-139.066
		c-15.408-18.813-28.615-39.076-37.814-61.754c-17.659-43.549-9.854-83.008,19.689-118.56
		c27.263-32.795,63.098-53.959,101.87-69.408c33.239-13.258,67.781-23.264,101.99-33.946c6.947-2.171,9.875-4.655,10.37-11.986
		c4.079-60.32,17.82-118.762,35.128-177.749c-69.983-15.792-140.461-25.506-213.019-18.579
		c-12.137,35.703-39.651,50.303-75.284,51.05c-21.81,0.464-44.326,0.879-65.408-3.746c-59.331-13.025-86.32-71.185-61.098-127.677
		c23.526-52.657,65.671-81.968,120.307-95.428c43.316-10.662,115.046-23.021,182.626-20.648
		c105.515,1.232,207.817,20.689,307.012,56.332c124.568,44.76,238.503,108.311,339.878,193.793
		C1149.37,1176.091,1157.58,1183.411,1166.597,1191.246L1166.597,1191.246z"/>
	<g opacity="0.25">
		<path d="M1370.184,1932.695c-4.231-2.424-8.319-3.867-11.178-6.584c-9.451-8.977-5.806-24.143,8.098-28.785
			c11.088-3.697,14.783-10.402,17.761-20.934c7.189-25.424,15.803-50.484,24.748-75.373c2.263-6.311,6.928-12.643,12.167-16.842
			c8.734-6.988,21.104-4.221,29.211,7.188c12.581,17.752,23.627,36.563,35.744,54.637c2.545,3.826,6.411,7.27,10.451,9.451
			c7.794,4.27,11.369,11.541,9.652,20.568c-0.596,3.078-0.091,6.895,1.303,9.701c9.42,18.973,19.285,37.723,28.816,56.656
			c5.412,10.752,2.313,21.375-7.351,26.453c-9.351,4.898-18.739,1.02-24.546-10.188c-9.592-18.559-19.447-36.955-28.564-55.746
			c-3.181-6.572-6.584-7.391-12.954-4.906c-15.096,5.865-30.321,11.369-45.689,16.498c-5.534,1.838-7.825,5.139-8.997,10.49
			c-2.767,12.631-5.917,25.213-9.017,37.773c-2.797,11.34-12.925,18.529-22.698,16.227c-10.067-2.373-14.894-11.592-12.229-23.729
			c1.404-6.33,3.102-12.582,4.615-18.861C1369.82,1935.26,1369.941,1934.078,1370.184,1932.695L1370.184,1932.695z
			 M1435.391,1830.088l-13.601,45.932l33.542-11.934L1435.391,1830.088L1435.391,1830.088z M722.315,1697.332
			c54.836,9.723,108.422,13.652,162.604,8.26c49.202-4.867,97.346-14.025,143.357-32.625c36.875-14.922,70.447-34.965,95.257-66.75
			c36.975-47.367,41.044-100.205,22.253-155.556c-17.447-51.455-50.092-93.156-87.965-130.929
			c-69.367-69.186-151.113-120.135-239.767-160.584c-88.116-40.207-180.051-68.033-275.78-82.917
			c-69.741-10.833-139.784-12.833-210.01-5.473c-9.926,1.04-19.821,3.019-29.534,5.332c-5.22,1.242-10.047,4.079-17.902,7.412
			c6.189,4.442,9.774,7.653,13.894,9.824c6.553,3.464,11.319,7.856,10.229,15.813c-1.061,7.714-7.814,9.339-13.722,10.218
			c-21.032,3.14-41.771,2.433-61.259-7.593c-11.248-5.785-16.701-16.761-13.066-28.767c2.182-7.219,5.049-14.671,9.432-20.709
			c18.508-25.546,41.872-42.508,74.021-49.92c87.218-20.093,201.518-18.821,243.683-14.731
			c65.722,6.371,129.788,20.002,192.439,40.469c136.383,44.538,259.87,112.451,368.736,206.122
			c54.262,46.679,101.748,99.325,134.291,163.887c17.75,35.207,28.373,72.163,25.929,112.259
			c-3.008,49.436-21.345,92.682-52.332,130.645c-45.73,56.051-106.09,90.047-173.762,111.918
			c-70.387,22.729-142.833,31.199-216.501,25.172c-33.685-2.746-67.045-9.311-100.547-14.086c-1.141-0.182-2.313-0.15-3.837-0.223
			c-0.646,1.646-1.444,3.191-1.868,4.836c-8.37,33.049-29.715,41.873-62.652,38.512c-24.768-2.525-38.076-18.033-43.902-47.234
			c-1.727-8.652-3.271-17.488-3.423-26.273c-0.11-6.775-2.888-9.561-8.623-12.166c-63.409-28.686-120.993-66.156-170.832-115.006
			c-19.204-18.842-36.723-39.166-50.062-62.754c-19.225-33.977-15.66-55.534,13.691-81.13c27.575-24.04,60.411-38.61,94.236-51.182
			c37.359-13.883,75.819-23.829,115.168-30.17c6.764-1.091,9.036-3.797,9.318-10.733c1.757-42.751,4.958-85.36,16.105-126.92
			c1.677-6.22,3.948-12.328,6.492-18.245c10.3-23.981,26.242-24.728,46.073-7.756c6.906,5.907,11.077,15.894,14.499,24.799
			c10.432,27.222,13.39,56.028,15.964,84.806c1.253,14.065,1.908,28.161,2.938,43.528c5.745,0,11.238-0.01,16.73,0
			c57.079,0.242,113.744,4.422,169.087,19.558c34.026,9.289,67.074,21.093,93.802,45.376c21.132,19.185,34.431,42.479,29.23,72.022
			c-5.23,29.625-25.062,48.436-50.778,61.805c-1.475,0.768-3.403,1.141-5.068,1.029c-15.015-1.01-30.09-1.535-44.983-3.453
			c-15.155-1.949-19.164-11.813-9.925-24.193c5.613-7.512,12.833-13.791,19.113-20.83c9.279-10.41,8.796-15.115-3.18-22.184
			c-21.346-12.62-45.245-18.204-69.085-23.657c-46.881-10.702-94.397-13.803-143.631-11.308L722.315,1697.332L722.315,1697.332z
			 M609.137,1476.105c-46.234,6.604-91.843,12.116-137.027,20.093c-17.023,2.989-33.806,10.248-49.335,18.236
			c-15.297,7.846-16.488,18.377-5.725,31.785c7.148,8.926,15.146,17.377,23.819,24.828c39.035,33.482,83.653,57.959,130.353,78.889
			c11.965,5.363,24.183,10.139,37.915,15.873V1476.105L609.137,1476.105z M2201.577,1745.898l0.586,2.555
			c23.203-5.148,46.891-8.775,69.528-15.781c39.5-12.207,75.638-31.371,106.494-59.422c9.421-8.543,10.35-15.227,3.322-25.758
			c-10.835-16.176-25.667-26.029-46.002-24.293c-11.42,1-22.779,2.979-34.118,4.795c-25.89,4.131-51.749,8.604-77.657,12.652
			c-11.42,1.777-13.682,0.131-12.046-11.449c1.888-13.328,5.342-26.465,8.653-39.582c3.13-12.459,11.178-17.881,24.436-17.881
			c28.362,0.029,56.695-0.939,84.996-1.695c4.979-0.123,10.037-0.709,14.894-1.85c14.277-3.342,21.992-15.205,20.871-31.492
			c-1.04-15.266-9.885-24.566-24.98-25.596c-9.714-0.666-19.487-0.496-29.2-1.08c-15.883-0.971-31.766-2.322-47.639-3.373
			c-6.351-0.414-8.854-3.596-8.219-9.793c0.373-3.524,0.081-7.119,0.605-10.603c3.241-21.083,4.383-22.193,25.324-25.364
			c2.322-0.354,4.705-0.504,7.047-0.666c34.148-2.403,68.348-4.149,102.395-7.593c9.805-0.99,19.992-5.493,28.434-10.854
			c12.621-7.997,14.065-19.174,4.816-30.695c-20.588-25.688-46.8-41.277-80.564-40.823c-13.227,0.182-26.434,2.181-39.651,3.484
			c-41.378,4.089-82.786,7.805-124.083,12.611c-15.701,1.817-31.594,4.897-44.75,15.004c-7.806,6.008-10.199,13.591-4.767,21.639
			c4.463,6.613,10.652,12.682,17.347,17.003c9.088,5.876,19.286,10.106,29.242,14.54c5.674,2.524,7.32,6.189,5.836,11.924
			c-2.484,9.684-4.08,19.689-7.613,28.989c-1.879,4.928-6.361,9.502-10.814,12.602c-7.451,5.148-16.418,8.158-23.646,13.551
			c-11.915,8.863-12.955,18.477-6.987,31.764c2.19,4.816,2.888,11.441,1.524,16.498c-4.736,17.611-10.147,35.037-16.217,52.232
			c-11.046,31.342-3.686,59.855,12.834,86.814c15.822,25.881,39.5,37.926,69.801,37.006h-0.03V1745.898z M1388.49,1598.764
			c-4.05-52.949-7.089-101.818-11.895-150.516c-1.687-17.064-6.946-33.947-12.157-50.425c-2.06-6.523-7.431-12.874-12.924-17.256
			c-13.035-10.389-25.828-7.471-33.917,7.18c-10.773,19.498-14.872,41.247-16.125,62.895c-3.331,57.413-5.826,114.895-6.865,172.387
			c-0.384,21.012,2.716,42.418,6.957,63.098c5.968,29.1,20.577,38.791,49.93,36.984c21.951-1.363,30.422-7.4,32.361-29.434
			C1386.753,1660.852,1387.178,1627.814,1388.49,1598.764z"/>
		<path d="M2476.158,1572.422c14.993-17.762,28.917-34.865,43.508-51.436c33.765-38.349,68.367-76.041,110.442-105.585
			c13.064-9.178,28.211-15.569,42.831-22.304c14.934-6.876,29.453-3.282,43.155,4.442c26.071,14.711,40.036,38.42,47.871,66.217
			c12.116,42.953,9.026,84.785-12.067,124.355c-37.984,71.145-95.205,119.207-173.588,140.148
			c-15.126,4.037-31.514,3.281-47.275,5.23c-2.686,0.332-6.725,2.604-7.36,4.805c-20.507,70.287-41.196,140.563-60.593,211.16
			c-7.008,25.477-10.724,51.859-16.034,77.799c-0.696,3.434-1.908,6.785-2.969,10.139c-2.453,7.793-8.208,9.449-15.397,7.904
			c-34.886-7.391-69.316-46.486-71.902-82.33c-2.504-34.725,3.12-68.822,9.855-102.709c12.773-64.479,32.038-127.203,51.727-189.795
			c1.889-5.967,1.646-10.854-1.049-16.699c-22.891-49.385-18.004-98.67,2.15-147.377c20.981-50.729,51.596-95.196,90.146-134.211
			c3.877-3.928,8.34-7.614,13.197-10.118c9.35-4.837,15.408-2.524,19.952,7.2c6.502,13.984,5.886,28.242-0.909,41.801
			c-7.25,14.469-15.822,28.271-23.122,42.711c-13.895,27.555-27.687,55.21-40.672,83.191
			C2473.059,1547.672,2470.655,1559.445,2476.158,1572.422L2476.158,1572.422z M2567.092,1637.314c2.838,0,4.342,0.191,5.735-0.051
			c45.003-7.27,81.796-29.049,110.613-64.035c16.983-20.557,27.01-44.256,25.637-71.438c-0.435-8.632-2.312-17.649-5.645-25.616
			c-4.554-10.976-13.581-12.409-22.264-4.613c-5.251,4.725-10.37,9.702-14.873,15.145
			C2628.007,1532.9,2598.23,1584.699,2567.092,1637.314L2567.092,1637.314z M1603.881,1727.623
			c-40.137-1.574-78.959-7.279-115.218-25.08c-21.478-10.531-39.702-24.951-53.727-44.832
			c-21.668-30.695-7.411-69.549,17.115-85.613c17.325-11.34,36.53-17.004,56.745-17.438c43.014-0.969,85.271,5.15,126.425,17.721
			c8.886,2.727,17.55,7.098,25.304,12.236c10.935,7.252,11.48,17.59,1.97,26.799c-13.41,13.035-30.655,16.902-48.477,18.83
			c-21.185,2.313-40.722-4.412-60.239-11.338c-17.175-6.1-34.229-12.824-51.768-17.549c-12.632-3.434-24.637,0.555-33.674,10.672
			c-9.4,10.531-7.401,24.455,5.422,30.131c9.238,4.1,19.669,7.117,29.695,7.492c58.059,2.211,114.541-7.23,169.237-26.566
			c9.794-3.453,19.265-9.107,27.413-15.641c12.541-10.057,11.835-21.002-2.797-27.172c-19.931-8.379-40.721-15.246-61.743-20.486
			c-38.854-9.684-78.808-9.936-118.621-11.238c-22.294-0.727-44.487-4.422-66.711-6.846c-2.009-0.211-3.988-1.029-5.938-1.645
			c-36.269-11.643-50.243-38.461-39.368-75.214c6.938-23.445,22.718-39.58,42.933-51.868c27.091-16.468,57.119-24.919,88.017-30.383
			c61.41-10.874,123.225-11.985,185.1-5.059c12.651,1.414,25.162,5.826,37.248,10.219c9.047,3.292,14.903,10.764,15.308,20.921
			c0.414,10.289-5.149,18.396-14.156,21.527c-17.963,6.22-36.249,13.136-54.908,15.357c-47.123,5.614-94.579,8.411-141.813,13.086
			c-18.71,1.848-37.289,5.221-55.746,8.875c-7.451,1.475-15.902,3.443-18.427,12.864c6.351,2.807,12.47,7.26,19.063,8.147
			c23.354,3.12,46.86,5.322,70.346,7.331c39.328,3.362,79.151,4.24,117.065,16.428c15.974,5.139,32.32,12.408,45.417,22.678
			c39.58,31.039,44.256,91.459,12.046,133.645c-22.688,29.758-54.262,44.811-89.864,51.768
			C1643.26,1724.16,1623.448,1725.311,1603.881,1727.623z M2018.376,1592.686c1.212-6.381,3.211-12.732,3.534-19.154
			c1.322-28.494-7.461-55.281-15.015-82.179c-10.895-38.793-22.667-77.334-33.29-116.188c-2.585-9.481-3.12-19.83-2.786-29.715
			c0.575-17.912,12.298-24.475,28.523-16.61c15.883,7.704,27.091,20.77,37.087,34.724c34.906,48.698,55.746,103.303,66.934,161.845
			c7.018,36.734,8.209,73.195-5.24,108.949c-7.219,19.225-16.337,37.277-31.614,51.453c-19.002,17.66-48.637,30.393-75.495,0.203
			c-22.416-25.273-42.277-52.869-62.229-80.221c-16.135-22.094-30.604-45.408-45.991-68.057c-2.231-3.311-5.442-5.967-8.189-8.914
			l-2.837,0.252c-1.333,8.4-3.434,16.752-3.887,25.182c-1.546,29.463-1.737,59.049-4.029,88.43
			c-1.384,17.803-4.655,35.633-8.946,52.98c-3.16,12.793-9.662,24.748-25.556,25.535c-17.004,0.818-30.928-6.119-36.662-22.174
			c-5.089-14.176-9.047-29.664-9.179-44.598c-0.525-72.094,9.936-142.713,33.139-211.13c3.635-10.692,9.44-20.951,15.832-30.341
			c9.744-14.338,22.345-17.336,35.421-6.088c17.074,14.711,33.694,30.715,47.265,48.607c30.23,39.903,58.401,81.382,87.542,122.134
			c3.877,5.402,8.511,10.277,12.792,15.367C2016.447,1592.867,2017.396,1592.766,2018.376,1592.686L2018.376,1592.686z
			 M1594.813,1133.834c-12.309-37.005-47.607-60.693-86.512-58.058c-34.703,2.342-59.421,25.898-66.338,62.683l-43.004-21.972
			c11.512-19.921,14.913-34.29,10.562-50.767c-8.259-31.402-28.403-51.344-60.31-57.494c-31.492-6.068-59.432,1.889-80.16,27.444
			c-19.952,24.617-19.71,55.928,0.191,80.535c6.745,8.36,15.357,15.206,23.678,23.304c-1.817,1.091-4.392,2.524-6.846,4.13
			c-24.688,15.974-44.761,36.118-58.543,62.491c-18.406,35.208-1.797,71.064,19.487,88.391
			c30.857,25.131,66.682,30.493,104.252,24.586c33.938-5.332,62.764-22.92,89.451-43.962c18.437-14.53,33.633-31.907,45.224-52.202
			c21.083,9.693,41.055,12.268,59.048,7.846C1588.139,1220.205,1609.616,1178.382,1594.813,1133.834L1594.813,1133.834z
			 M1265.699,1211.672c17.407-24.617,43.316-34.491,69.973-41.004l-74.89,63.399
			C1258.177,1226.626,1260.792,1218.63,1265.699,1211.672z M1455.474,1207.937c-4.09,10.208-11.106,20.618-19.628,27.423
			c-32.372,25.859-69.085,41.096-111.503,39.045c-5.271-0.251-10.521-1.251-15.73-2.109c-2.212-0.364-4.332-1.283-8.593-2.616
			c16.681-15.721,31.392-31.482,48.072-44.791c18.78-14.974,38.954-28.363,59.351-41.095c7.088-4.433,16.589-6.433,25.11-6.846
			C1451.111,1176.06,1462.38,1190.721,1455.474,1207.937z M1590.634,1870.154c0,31.402-0.172,62.389,0.101,93.367
			c0.091,11.359-6.604,20.607-16.61,21.275c-10.944,0.736-18.073-5.898-18.275-18.791c-0.696-43.367-0.96-86.734-1.211-130.102
			c-0.051-4.686,0.797-9.42,1.706-14.045c2.969-15.307,19.406-21.588,31.028-11.066c8.219,7.451,15.044,16.549,21.88,25.404
			c18.316,23.84,36.319,47.961,54.444,71.932c1.373,1.809,2.897,3.494,5.411,6.533c0.758-20.801,1.293-40.076,2.222-59.311
			c0.99-21.215,2.182-42.418,3.574-63.592c0.667-10.42,9.4-18.164,18.721-17.307c9.764,0.908,16.337,9.531,15.862,19.912
			c-1.747,39.48-3.161,78.98-4.978,118.459c-0.525,11.439-1.475,22.932-3.293,34.219c-1.555,9.865-6.915,17.488-17.396,20.133
			c-10.511,2.666-18.831-1.797-25.021-9.43c-17.447-21.516-34.359-43.447-51.425-65.309
			C1601.629,1885.117,1596.177,1877.564,1590.634,1870.154z M1956.936,1836.854l2.848,28.201
			c17.689-1.111,34.693-2.049,51.666-3.291c9.107-0.666,18.185-1.949,27.272-2.828c10.339-1.02,18.831,4.826,20.295,13.814
			c1.616,9.822-4.473,17.961-15.872,19.477c-17.205,2.303-34.532,3.916-51.818,5.604c-8.785,0.838-17.58,1.191-27.051,1.807
			c0.97,8.037,2.09,15.5,2.687,23.012c0.454,5.867,4.625,5.594,8.319,5.17c21.053-2.344,42.096-4.908,63.127-7.633
			c7.291-0.949,14.449-2.818,21.709-3.969c9.784-1.535,17.195,2.807,20.346,11.541c3.16,8.875,0.344,19.113-8.158,22.789
			c-8.501,3.654-17.852,6.412-27.04,7.23c-23.778,2.129-47.668,2.998-71.527,4.24c-3.827,0.211-7.694,0.039-11.501-0.252
			c-16.902-1.254-24.021-6.049-26.868-22.578c-4.998-28.969-8.521-58.219-12.47-87.359c-0.99-7.301-1.515-14.672-1.777-22.043
			c-0.596-16.428,7.824-26.262,24.384-27.293c16.166-1.029,32.433-0.797,48.638-1.473c18.559-0.768,37.107-1.889,55.655-2.867
			c10.926-0.586,19.7,6.178,20.851,16.113c1.07,9.594-5.392,17.803-16.902,18.559c-28.544,1.859-57.139,2.777-85.694,4.02
			C1964.6,1836.984,1961.136,1836.854,1956.936,1836.854L1956.936,1836.854z M1201.795,1917.146
			c-3.483,0.816-5.715,1.543-8.018,1.848c-9.531,1.262-16.923-3.625-19.456-12.744c-2.272-8.168,2.463-16.67,11.35-20.406
			c16.054-6.744,16.074-6.744,16.074-24.393c0-14.764-0.111-29.525-0.021-44.256c0.07-11.885,7.542-19.488,19.094-19.801
			c9.885-0.254,17.387,7.734,17.519,19.305c0.211,17.357,0.05,34.744,0.05,52.949l48.133-14.156
			c-0.828-17.508-1.565-34.805-2.515-52.08c-0.615-11.066,3.15-17.791,12.167-20.961c12.592-4.443,23.405,2.766,24.112,16.205
			c0.798,15.287,1.454,30.564,2.171,45.791c15.499,1.262,22.001,5.977,22.718,16.195c0.738,10.572-4.998,16.408-21.041,20.658
			l2.342,52.525c0.313,7.059,0.817,14.146,0.898,21.225c0.131,11.408-8.007,20.334-18.538,20.639
			c-9.996,0.301-17.055-6.857-17.73-19.023c-1.202-21.477-1.938-42.963-2.938-65.662c-16.023,4.766-31.482,9.189-46.77,14.146
			c-1.474,0.494-2.687,4.119-2.736,6.33c-0.242,12.066,0.061,24.193-0.151,36.279c-0.162,9.521-5.573,16.377-14.388,19.023
			c-11.27,3.383-21.901-3.969-22.265-15.822C1201.532,1940.076,1201.795,1929.182,1201.795,1917.146L1201.795,1917.146z
			 M1026.641,1962.088c-10.732-0.93-27.434-2.15-44.074-3.908c-4.271-0.475-8.501-2.402-12.539-4.16
			c-33.856-14.691-42.731-45.527-20.014-74.646c21.366-27.385,50.254-46.125,79.989-63.34
			c19.659-11.359,40.904-17.941,63.552-20.094c17.315-1.635,33.431,6.332,40.035,20.234c4.654,9.785,2.443,19.186-5.665,24.123
			c-9.563,5.775-19.841,3.492-26.768-4.867c-2.131-2.564-6.957-4.957-9.915-4.361c-10.319,2.1-20.911,4.342-30.413,8.674
			c-28.15,12.873-52.727,31.299-74.729,52.898c-16.256,15.963-13.308,25.615,8.855,31.381c4.807,1.242,9.925,1.99,14.863,1.848
			c47.477-1.313,94.993-2.201,141.753-11.955c9.865-2.049,17.225,2.061,20.416,10.996c2.989,8.391-0.414,17.943-9.724,20.789
			c-13.137,4.02-26.788,7.1-40.438,8.553C1092.221,1957.373,1062.465,1959.221,1026.641,1962.088z M1771.987,1873.617
			c1.979,28.635,3.878,54.523,5.514,80.402c0.816,12.764-5.332,20.6-15.924,21.195c-9.916,0.545-17.165-6.564-17.983-18.721
			c-2.423-37.088-4.594-74.193-6.644-111.279c-0.263-4.635,0.404-9.451,1.394-14.016c2.907-13.299,15.721-18.801,27.111-11.229
			c6.31,4.201,12.035,9.482,17.376,14.945c19.417,19.82,38.48,39.992,57.846,59.855c6.513,6.672,13.521,12.822,22.355,21.133
			c-1.757-17.51-3.18-32.281-4.735-47.043c-2.231-21.113-4.675-42.186-6.766-63.318c-1.049-10.875,4.867-18.447,14.57-19.559
			c9.956-1.141,18.307,5.059,19.588,15.934c3.737,31.018,7.068,62.096,10.31,93.186c1.545,14.631,3.1,29.342,3.757,44.053
			c0.959,21.578-15.883,32.443-34.623,21.609c-11.339-6.572-21.77-15.258-31.322-24.334c-17.538-16.65-34.158-34.291-51.12-51.535
			C1779.671,1881.795,1776.712,1878.605,1771.987,1873.617L1771.987,1873.617z M2145.912,1934.764
			c37.259-9.117,74.093-9.49,111.018-8.328c6.473,0.201,12.965,0.717,19.397,1.574c11.52,1.545,19.184,10.229,18.245,20.094
			c-0.99,10.137-8.633,16.186-20.982,15.176c-40.529-3.271-80.585-1.293-120.609,6.664c-27.929,5.533-43.639-9.4-44.175-37.914
			c-0.747-40.713-1.878-81.424-2.959-122.166c-0.343-13.156,5.716-21.385,16.479-21.809c12.358-0.484,19.72,7.582,20.053,21.455
			c0.938,39.551,1.998,79.072,3.049,118.631C2145.479,1929.857,2145.67,1931.574,2145.912,1934.764L2145.912,1934.764z"/>
	</g>
	<g>
		<path fill="#FFFFFF" d="M1377.272,1912.018c-4.231-2.404-8.32-3.848-11.178-6.555c-9.451-8.986-5.807-24.141,8.098-28.807
			c11.086-3.686,14.782-10.4,17.761-20.932c7.199-25.424,15.803-50.455,24.738-75.344c2.271-6.332,6.937-12.643,12.177-16.852
			c8.734-7.008,21.112-4.242,29.211,7.168c12.58,17.75,23.626,36.563,35.744,54.666c2.544,3.807,6.41,7.24,10.45,9.451
			c7.795,4.24,11.358,11.521,9.642,20.547c-0.574,3.08-0.1,6.906,1.293,9.693c9.421,18.982,19.296,37.752,28.817,56.664
			c5.422,10.744,2.313,21.377-7.331,26.445c-9.339,4.908-18.76,1.029-24.546-10.158c-9.592-18.578-19.446-36.984-28.564-55.766
			c-3.181-6.564-6.583-7.391-12.954-4.906c-15.096,5.855-30.321,11.357-45.689,16.486c-5.533,1.838-7.835,5.15-8.997,10.492
			c-2.766,12.662-5.916,25.213-9.025,37.773c-2.798,11.35-12.915,18.527-22.689,16.225c-10.066-2.352-14.893-11.58-12.227-23.717
			c1.393-6.332,3.089-12.561,4.613-18.871C1376.908,1914.602,1377.02,1913.41,1377.272,1912.018L1377.272,1912.018z
			 M1442.469,1809.41l-13.601,45.951l33.543-11.945L1442.469,1809.41L1442.469,1809.41z M729.393,1676.654
			c54.838,9.732,108.423,13.65,162.604,8.27c49.203-4.857,97.347-14.025,143.358-32.635c36.874-14.893,70.447-34.967,95.256-66.742
			c36.976-47.375,41.045-100.193,22.255-155.565c-17.448-51.445-50.093-93.167-87.967-130.929
			c-69.377-69.186-151.113-120.135-239.765-160.585c-88.118-40.206-180.052-68.034-275.782-82.906
			c-69.74-10.845-139.784-12.833-210.009-5.474c-9.926,1.04-19.821,3.029-29.534,5.332c-5.221,1.232-10.047,4.069-17.902,7.412
			c6.189,4.443,9.774,7.644,13.894,9.825c6.554,3.453,11.329,7.855,10.229,15.812c-1.06,7.714-7.815,9.33-13.722,10.208
			c-21.033,3.141-41.771,2.444-61.259-7.592c-11.249-5.796-16.701-16.762-13.066-28.767c2.181-7.22,5.049-14.682,9.431-20.709
			c18.508-25.545,41.873-42.519,74.022-49.92c87.218-20.104,201.517-18.841,243.683-14.742
			c65.723,6.372,129.788,20.002,192.44,40.469c136.381,44.559,259.858,112.461,368.735,206.123
			c54.262,46.688,101.748,99.334,134.291,163.895c17.751,35.209,28.373,72.174,25.93,112.27
			c-3.01,49.435-21.346,92.671-52.334,130.636c-45.729,56.049-106.09,90.045-173.761,111.926
			c-70.376,22.75-142.832,31.189-216.501,25.172c-33.684-2.756-67.045-9.289-100.547-14.096c-1.141-0.172-2.313-0.15-3.837-0.221
			c-0.646,1.676-1.443,3.209-1.868,4.846c-8.37,33.049-29.735,41.863-62.652,38.5c-24.769-2.523-38.076-18.043-43.901-47.244
			c-1.728-8.652-3.271-17.488-3.434-26.271c-0.11-6.766-2.888-9.553-8.623-12.168c-63.409-28.686-120.993-66.146-170.833-114.996
			c-19.204-18.83-36.723-39.166-50.061-62.754c-19.225-33.975-15.65-55.513,13.691-81.129
			c27.575-24.041,60.411-38.611,94.236-51.182c37.369-13.894,75.818-23.839,115.167-30.17c6.765-1.09,9.037-3.816,9.319-10.744
			c1.757-42.75,4.958-85.371,16.105-126.93c1.676-6.22,3.948-12.329,6.492-18.256c10.299-23.97,26.242-24.727,46.072-7.744
			c6.907,5.896,11.077,15.893,14.5,24.789c10.431,27.222,13.389,56.028,15.964,84.815c1.252,14.056,1.908,28.162,2.938,43.539
			c5.756,0,11.239-0.02,16.731,0c57.079,0.231,113.743,4.422,169.086,19.548c34.027,9.299,67.084,21.103,93.813,45.376
			c21.122,19.185,34.431,42.479,29.23,72.022c-5.23,29.656-25.061,48.425-50.778,61.814c-1.475,0.768-3.402,1.131-5.079,1.041
			c-15.004-1.021-30.079-1.555-44.982-3.453c-15.155-1.949-19.164-11.834-9.925-24.193c5.613-7.502,12.833-13.793,19.113-20.83
			c9.278-10.43,8.794-15.115-3.181-22.193c-21.346-12.622-45.245-18.185-69.084-23.648c-46.881-10.723-94.397-13.812-143.632-11.328
			C725.768,1528.195,727.575,1602.055,729.393,1676.654z M616.215,1455.436c-46.235,6.604-91.844,12.127-137.027,20.093
			c-17.024,3.01-33.805,10.249-49.335,18.226c-15.297,7.876-16.488,18.376-5.725,31.796c7.148,8.916,15.146,17.396,23.818,24.809
			c39.035,33.512,83.655,57.967,130.354,78.898c11.965,5.342,24.182,10.137,37.914,15.861V1455.436L616.215,1455.436z
			 M2208.687,1725.24l0.585,2.535c23.203-5.15,46.881-8.775,69.508-15.762c39.49-12.197,75.638-31.383,106.515-59.422
			c9.39-8.563,10.329-15.246,3.292-25.748c-10.824-16.195-25.657-26.061-45.973-24.293c-11.43,0.969-22.799,2.947-34.138,4.766
			c-25.88,4.15-51.728,8.604-77.636,12.662c-11.431,1.777-13.702,0.131-12.047-11.471c1.868-13.318,5.342-26.465,8.633-39.539
			c3.141-12.48,11.197-17.914,24.455-17.904c28.332,0.051,56.665-0.947,84.998-1.676c4.968-0.141,10.026-0.727,14.863-1.857
			c14.307-3.352,22.001-15.205,20.881-31.502c-1.041-15.248-9.896-24.567-24.98-25.586c-9.714-0.677-19.468-0.484-29.211-1.07
			c-15.874-0.979-31.735-2.332-47.607-3.383c-6.352-0.434-8.887-3.604-8.221-9.804c0.354-3.504,0.071-7.108,0.597-10.593
			c3.251-21.092,4.392-22.192,25.334-25.363c2.321-0.354,4.705-0.505,7.047-0.666c34.118-2.403,68.348-4.16,102.374-7.604
			c9.825-0.989,19.983-5.492,28.424-10.854c12.622-7.997,14.065-19.164,4.837-30.695c-20.588-25.687-46.83-41.267-80.595-40.813
			c-13.218,0.172-26.425,2.172-39.621,3.484c-41.378,4.089-82.807,7.805-124.104,12.601c-15.711,1.828-31.594,4.897-44.75,15.015
			c-7.806,6.008-10.198,13.581-4.756,21.638c4.463,6.614,10.652,12.671,17.357,17.003c9.087,5.876,19.265,10.097,29.221,14.54
			c5.674,2.525,7.32,6.19,5.846,11.915c-2.494,9.684-4.068,19.709-7.593,28.999c-1.878,4.896-6.371,9.491-10.824,12.581
			c-7.452,5.159-16.407,8.158-23.667,13.541c-11.895,8.865-12.955,18.477-6.957,31.766c2.16,4.826,2.857,11.439,1.515,16.498
			c-4.756,17.609-10.138,35.047-16.206,52.252c-11.067,31.342-3.687,59.846,12.813,86.814
			C2154.728,1714.094,2178.395,1726.139,2208.687,1725.24L2208.687,1725.24z M1395.567,1578.096
			c-4.048-52.93-7.088-101.809-11.895-150.517c-1.685-17.054-6.946-33.947-12.156-50.415c-2.06-6.523-7.432-12.875-12.924-17.256
			c-13.036-10.39-25.829-7.472-33.917,7.18c-10.772,19.497-14.872,41.246-16.124,62.895c-3.332,57.392-5.827,114.893-6.867,172.356
			c-0.383,21.023,2.717,42.459,6.958,63.107c5.967,29.1,20.577,38.793,49.929,36.996c21.951-1.363,30.423-7.412,32.361-29.443
			C1393.842,1640.184,1394.266,1607.125,1395.567,1578.096L1395.567,1578.096z"/>
		<path fill="#FFFFFF" d="M2483.256,1551.752c14.964-17.771,28.888-34.875,43.488-51.423
			c33.785-38.37,68.388-76.042,110.452-105.596c13.075-9.179,28.201-15.57,42.812-22.305c14.934-6.866,29.483-3.282,43.155,4.443
			c26.101,14.711,40.045,38.419,47.89,66.226c12.127,42.943,9.037,84.776-12.086,124.336
			c-37.964,71.164-95.205,119.205-173.579,140.146c-15.125,4.039-31.513,3.283-47.253,5.24c-2.687,0.334-6.726,2.605-7.372,4.797
			c-20.507,70.305-41.195,140.563-60.603,211.17c-6.977,25.475-10.692,51.85-16.014,77.799c-0.688,3.434-1.928,6.764-2.979,10.127
			c-2.443,7.795-8.199,9.451-15.378,7.936c-34.886-7.42-69.315-46.506-71.901-82.33c-2.523-34.744,3.12-68.844,9.835-102.738
			c12.792-64.48,32.038-127.193,51.747-189.785c1.857-5.967,1.636-10.844-1.07-16.711c-22.87-49.375-17.982-98.668,2.15-147.367
			c21.002-50.728,51.586-95.195,90.147-134.2c3.867-3.928,8.34-7.613,13.216-10.127c9.342-4.826,15.379-2.524,19.933,7.209
			c6.522,13.984,5.907,28.242-0.899,41.812c-7.26,14.469-15.842,28.252-23.132,42.71c-13.903,27.555-27.666,55.211-40.661,83.189
			C2480.156,1527.004,2477.753,1538.768,2483.256,1551.752z M2574.18,1616.637c2.838,0,4.332,0.201,5.745-0.021
			c45.003-7.279,81.767-29.09,110.613-64.035c16.983-20.588,26.99-44.266,25.606-71.447c-0.434-8.652-2.313-17.649-5.613-25.626
			c-4.555-10.986-13.591-12.399-22.284-4.604c-5.251,4.726-10.35,9.703-14.874,15.125
			C2635.086,1512.232,2605.31,1564.021,2574.18,1616.637L2574.18,1616.637z M1610.969,1706.955
			c-40.146-1.555-78.97-7.281-115.217-25.072c-21.478-10.541-39.703-24.959-53.728-44.84c-21.668-30.705-7.41-69.529,17.115-85.613
			c17.326-11.34,36.53-17.004,56.745-17.449c43.014-0.959,85.26,5.15,126.436,17.752c8.855,2.705,17.528,7.078,25.303,12.217
			c10.926,7.27,11.461,17.59,1.949,26.799c-13.408,13.035-30.664,16.902-48.455,18.85c-21.204,2.313-40.723-4.432-60.26-11.338
			c-17.186-6.1-34.21-12.834-51.777-17.58c-12.622-3.422-24.618,0.586-33.654,10.703c-9.421,10.512-7.421,24.436,5.412,30.119
			c9.239,4.09,19.659,7.109,29.686,7.504c58.058,2.201,114.531-7.23,169.236-26.586c9.785-3.453,19.286-9.107,27.403-15.641
			c12.571-10.066,11.845-20.982-2.766-27.15c-19.942-8.402-40.752-15.277-61.744-20.508c-38.874-9.684-78.808-9.945-118.641-11.238
			c-22.284-0.707-44.478-4.402-66.701-6.826c-2.01-0.221-3.988-1.029-5.937-1.676c-36.27-11.621-50.234-38.45-39.369-75.203
			c6.937-23.456,22.719-39.591,42.933-51.879c27.091-16.458,57.13-24.91,88.017-30.372c61.42-10.885,123.225-11.995,185.09-5.059
			c12.672,1.423,25.182,5.825,37.237,10.218c9.067,3.302,14.924,10.764,15.338,20.911c0.395,10.3-5.149,18.407-14.156,21.537
			c-17.982,6.22-36.248,13.146-54.917,15.368c-47.134,5.604-94.561,8.4-141.794,13.075c-18.721,1.868-37.319,5.22-55.767,8.876
			c-7.452,1.484-15.893,3.452-18.427,12.854c6.351,2.816,12.47,7.26,19.073,8.157c23.354,3.131,46.84,5.312,70.337,7.332
			c39.338,3.371,79.15,4.239,117.044,16.427c15.984,5.14,32.353,12.419,45.417,22.669c39.592,31.068,44.286,91.469,12.077,133.674
			c-22.719,29.736-54.293,44.811-89.864,51.768C1650.338,1703.49,1630.547,1704.643,1610.969,1706.955L1610.969,1706.955z
			 M2025.444,1572.006c1.212-6.369,3.241-12.721,3.544-19.154c1.333-28.482-7.473-55.27-15.014-82.179
			c-10.875-38.772-22.668-77.313-33.281-116.176c-2.585-9.482-3.13-19.831-2.797-29.726c0.596-17.913,12.289-24.476,28.515-16.61
			c15.893,7.704,27.11,20.76,37.097,34.714c34.915,48.708,55.767,103.303,66.953,161.856c7.018,36.723,8.21,73.184-5.25,108.969
			c-7.219,19.184-16.327,37.268-31.614,51.453c-19.022,17.629-48.657,30.393-75.516,0.172
			c-22.415-25.252-42.277-52.859-62.198-80.191c-16.135-22.123-30.625-45.426-46.012-68.084c-2.242-3.281-5.424-5.947-8.18-8.895
			l-2.837,0.25c-1.353,8.402-3.433,16.752-3.877,25.203c-1.546,29.463-1.768,59.018-4.029,88.41
			c-1.384,17.813-4.686,35.623-8.966,52.971c-3.141,12.791-9.644,24.768-25.536,25.545c-17.014,0.818-30.927-6.1-36.673-22.152
			c-5.078-14.207-9.066-29.676-9.178-44.631c-0.516-72.063,9.945-142.702,33.139-211.109c3.615-10.703,9.44-20.972,15.822-30.352
			c9.753-14.338,22.365-17.336,35.431-6.088c17.085,14.702,33.683,30.706,47.244,48.607c30.23,39.913,58.412,81.393,87.572,122.155
			c3.866,5.381,8.512,10.258,12.792,15.367L2025.444,1572.006L2025.444,1572.006z M1601.893,1113.165
			c-12.299-37.005-47.589-60.693-86.492-58.058c-34.703,2.353-59.422,25.909-66.348,62.683l-42.983-21.971
			c11.511-19.932,14.893-34.28,10.541-50.768c-8.259-31.412-28.403-51.344-60.311-57.494c-31.491-6.068-59.431,1.889-80.16,27.445
			c-19.952,24.616-19.71,55.927,0.192,80.523c6.744,8.35,15.357,15.207,23.688,23.294c-1.838,1.101-4.402,2.534-6.855,4.13
			c-24.688,15.983-44.751,36.127-58.543,62.49c-18.397,35.209-1.809,71.053,19.478,88.391
			c30.855,25.122,66.681,30.493,104.252,24.596c33.936-5.342,62.763-22.931,89.449-43.963c18.438-14.54,33.644-31.917,45.226-52.202
			c21.092,9.683,41.044,12.258,59.068,7.846C1595.218,1199.526,1616.714,1157.713,1601.893,1113.165L1601.893,1113.165z
			 M1272.778,1191.004c17.406-24.617,43.326-34.502,69.981-41.015l-74.889,63.4
			C1265.266,1205.958,1267.871,1197.961,1272.778,1191.004z M1462.562,1187.268c-4.099,10.198-11.116,20.618-19.639,27.403
			c-32.381,25.869-69.094,41.105-111.502,39.066c-5.26-0.252-10.521-1.252-15.73-2.11c-2.211-0.374-4.322-1.282-8.593-2.616
			c16.68-15.721,31.402-31.493,48.062-44.791c18.791-14.974,38.955-28.363,59.351-41.105c7.089-4.422,16.59-6.421,25.111-6.835
			C1458.2,1155.391,1469.468,1170.063,1462.562,1187.268z M1597.732,1849.486c0,31.42-0.202,62.379,0.09,93.346
			c0.091,11.4-6.593,20.609-16.619,21.295c-10.925,0.748-18.054-5.896-18.286-18.801c-0.687-43.357-0.949-86.723-1.211-130.09
			c-0.021-4.695,0.816-9.432,1.716-14.057c2.989-15.307,19.396-21.586,31.049-11.035c8.209,7.422,15.045,16.529,21.85,25.404
			c18.336,23.818,36.319,47.932,54.453,71.9c1.374,1.818,2.898,3.514,5.402,6.533c0.768-20.799,1.323-40.045,2.222-59.289
			c1.01-21.215,2.211-42.428,3.584-63.613c0.677-10.398,9.391-18.133,18.721-17.305c9.764,0.908,16.307,9.521,15.862,19.922
			c-1.768,39.479-3.16,78.979-4.979,118.457c-0.555,11.441-1.494,22.932-3.311,34.24c-1.565,9.844-6.897,17.459-17.378,20.113
			c-10.531,2.656-18.852-1.797-25.03-9.43c-17.447-21.539-34.361-43.469-51.404-65.299
			C1608.737,1864.449,1603.254,1856.887,1597.732,1849.486L1597.732,1849.486z M1964.023,1816.186l2.857,28.221
			c17.69-1.141,34.693-2.061,51.667-3.313c9.107-0.676,18.154-1.947,27.252-2.836c10.349-1.012,18.851,4.826,20.315,13.813
			c1.585,9.844-4.504,17.963-15.873,19.496c-17.236,2.303-34.532,3.898-51.838,5.584c-8.765,0.85-17.59,1.201-27.051,1.818
			c0.97,8.047,2.111,15.51,2.686,23c0.475,5.867,4.615,5.594,8.311,5.182c21.053-2.354,42.115-4.908,63.127-7.645
			c7.29-0.949,14.469-2.787,21.719-3.959c9.774-1.543,17.216,2.797,20.336,11.563c3.17,8.846,0.353,19.094-8.158,22.758
			c-8.492,3.646-17.853,6.432-27.01,7.24c-23.779,2.131-47.699,3-71.549,4.262c-3.807,0.201-7.673,0.02-11.48-0.264
			c-16.912-1.271-24.021-6.068-26.878-22.576c-5.009-28.979-8.542-58.221-12.479-87.371c-0.98-7.299-1.494-14.67-1.768-22.051
			c-0.586-16.43,7.836-26.232,24.385-27.273c16.175-1.029,32.422-0.807,48.627-1.463c18.559-0.768,37.098-1.898,55.655-2.898
			c10.945-0.586,19.72,6.189,20.841,16.135c1.1,9.572-5.382,17.791-16.893,18.549c-28.524,1.848-57.119,2.768-85.694,4.029
			C1971.697,1816.307,1968.234,1816.186,1964.023,1816.186L1964.023,1816.186z M1208.873,1896.477
			c-3.483,0.838-5.715,1.555-8.007,1.867c-9.542,1.254-16.933-3.645-19.458-12.752c-2.271-8.178,2.454-16.68,11.34-20.406
			c16.055-6.744,16.074-6.744,16.084-24.373c0-14.764-0.11-29.525-0.02-44.287c0.07-11.863,7.532-19.486,19.094-19.77
			c9.875-0.252,17.387,7.734,17.519,19.275c0.212,17.377,0.051,34.744,0.051,52.949l48.133-14.156
			c-0.839-17.498-1.565-34.775-2.525-52.051c-0.615-11.066,3.15-17.822,12.168-20.992c12.59-4.422,23.404,2.787,24.111,16.217
			c0.798,15.287,1.464,30.563,2.17,45.811c15.51,1.242,22.002,5.957,22.72,16.164c0.736,10.582-4.988,16.418-21.043,20.68
			l2.343,52.516c0.322,7.076,0.828,14.135,0.898,21.244c0.142,11.379-8.007,20.305-18.528,20.627
			c-9.995,0.293-17.054-6.865-17.729-19.033c-1.202-21.475-1.949-42.973-2.939-65.65c-16.033,4.756-31.492,9.199-46.779,14.137
			c-1.474,0.484-2.686,4.109-2.727,6.32c-0.262,12.096,0.051,24.203-0.161,36.299c-0.172,9.521-5.573,16.357-14.388,19.014
			c-11.279,3.381-21.901-3.979-22.265-15.813C1208.62,1919.406,1208.873,1908.502,1208.873,1896.477L1208.873,1896.477z
			 M1033.719,1941.408c-10.732-0.908-27.434-2.119-44.063-3.918c-4.281-0.463-8.512-2.381-12.541-4.139
			c-33.865-14.701-42.751-45.527-20.021-74.648c21.375-27.393,50.263-46.133,79.998-63.35c19.64-11.357,40.894-17.912,63.542-20.063
			c17.325-1.656,33.431,6.311,40.034,20.205c4.665,9.793,2.443,19.215-5.654,24.121c-9.572,5.775-19.851,3.514-26.788-4.855
			c-2.119-2.564-6.946-4.969-9.914-4.373c-10.33,2.102-20.911,4.352-30.403,8.693c-28.16,12.885-52.737,31.291-74.738,52.898
			c-16.257,15.975-13.309,25.596,8.855,31.373c4.806,1.262,9.915,1.979,14.862,1.857c47.478-1.322,94.983-2.221,141.753-11.975
			c9.875-2.029,17.226,2.09,20.427,11.025c2.999,8.359-0.415,17.922-9.724,20.789c-13.137,4.02-26.787,7.078-40.429,8.521
			C1099.31,1936.715,1069.554,1938.553,1033.719,1941.408L1033.719,1941.408z M1779.086,1852.949
			c1.969,28.645,3.866,54.504,5.502,80.422c0.809,12.723-5.321,20.568-15.942,21.164c-9.886,0.576-17.165-6.543-17.953-18.721
			c-2.403-37.096-4.635-74.193-6.674-111.289c-0.253-4.645,0.403-9.461,1.413-14.016c2.918-13.307,15.731-18.811,27.101-11.238
			c6.331,4.221,12.057,9.521,17.397,14.965c19.417,19.82,38.48,39.984,57.846,59.846c6.493,6.674,13.521,12.834,22.355,21.133
			c-1.776-17.508-3.181-32.279-4.735-47.021c-2.231-21.113-4.694-42.217-6.765-63.33c-1.061-10.873,4.867-18.438,14.569-19.568
			c9.956-1.119,18.296,5.068,19.589,15.943c3.715,31.02,7.037,62.098,10.309,93.176c1.535,14.672,3.1,29.363,3.756,44.064
			c0.949,21.598-15.882,32.432-34.643,21.607c-11.35-6.572-21.749-15.258-31.311-24.324c-17.549-16.639-34.148-34.289-51.122-51.535
			C1786.738,1861.117,1783.811,1857.936,1779.086,1852.949L1779.086,1852.949z M2153.011,1914.086
			c37.258-9.107,74.072-9.471,110.987-8.32c6.492,0.191,12.994,0.729,19.406,1.596c11.541,1.535,19.204,10.219,18.256,20.094
			c-1,10.137-8.643,16.154-21.003,15.145c-40.529-3.271-80.564-1.291-120.578,6.664c-27.929,5.555-43.671-9.369-44.196-37.883
			c-0.727-40.742-1.877-81.443-2.938-122.176c-0.343-13.176,5.695-21.375,16.469-21.809c12.369-0.496,19.699,7.572,20.031,21.455
			c0.95,39.541,2.031,79.08,3.08,118.602C2152.576,1909.189,2152.758,1910.904,2153.011,1914.086L2153.011,1914.086z"/>
	</g>
</g>
</svg>
