<?xml version="1.0" encoding="UTF-8" standalone="no"?>
<!-- Created with Inkscape (http://www.inkscape.org/) -->

<svg
   xmlns:dc="http://purl.org/dc/elements/1.1/"
   xmlns:cc="http://creativecommons.org/ns#"
   xmlns:rdf="http://www.w3.org/1999/02/22-rdf-syntax-ns#"
   xmlns:svg="http://www.w3.org/2000/svg"
   xmlns="http://www.w3.org/2000/svg"
   xmlns:sodipodi="http://sodipodi.sourceforge.net/DTD/sodipodi-0.dtd"
   xmlns:inkscape="http://www.inkscape.org/namespaces/inkscape"
   version="1.0"
   width="100"
   height="62"
   viewBox="0.4 -4 100 62"
   id="svg2"
   xml:space="preserve"
   sodipodi:version="0.32"
   inkscape:version="0.92.2 (5c3e80d, 2017-08-06)"
   sodipodi:docname="hhhhh.svg"
   inkscape:output_extension="org.inkscape.output.svg.inkscape"><title
     id="title831">Fox Channel logo</title><metadata
     id="metadata8"><rdf:RDF><cc:Work
         rdf:about=""><dc:format>image/svg+xml</dc:format><dc:type
           rdf:resource="http://purl.org/dc/dcmitype/StillImage" /><dc:title>Fox Channel logo</dc:title><cc:license
           rdf:resource="http://scripts.sil.org/OFL" /></cc:Work><cc:License
         rdf:about="http://scripts.sil.org/OFL"><cc:permits
           rdf:resource="http://scripts.sil.org/pub/OFL/Reproduction" /><cc:permits
           rdf:resource="http://scripts.sil.org/pub/OFL/Distribution" /><cc:permits
           rdf:resource="http://scripts.sil.org/pub/OFL/Embedding" /><cc:permits
           rdf:resource="http://scripts.sil.org/pub/OFL/DerivativeWorks" /><cc:requires
           rdf:resource="http://scripts.sil.org/pub/OFL/Notice" /><cc:requires
           rdf:resource="http://scripts.sil.org/pub/OFL/Attribution" /><cc:requires
           rdf:resource="http://scripts.sil.org/pub/OFL/ShareAlike" /><cc:requires
           rdf:resource="http://scripts.sil.org/pub/OFL/DerivativeRenaming" /><cc:requires
           rdf:resource="http://scripts.sil.org/pub/OFL/BundlingWhenSelling" /></cc:License></rdf:RDF></metadata><sodipodi:namedview
     inkscape:window-height="705"
     inkscape:window-width="1366"
     inkscape:pageshadow="2"
     inkscape:pageopacity="0.0"
     guidetolerance="10.0"
     gridtolerance="10.0"
     objecttolerance="10.0"
     borderopacity="1.0"
     bordercolor="#666666"
     pagecolor="#ffffff"
     id="base"
     showgrid="false"
     inkscape:zoom="7.0178607"
     inkscape:cx="67.032049"
     inkscape:cy="31.912007"
     inkscape:window-x="-8"
     inkscape:window-y="-8"
     inkscape:current-layer="svg2"
     inkscape:window-maximized="1"
     inkscape:showpageshadow="false" /><defs
     id="defs4"><inkscape:perspective
       sodipodi:type="inkscape:persp3d"
       inkscape:vp_x="0 : 397 : 1"
       inkscape:vp_y="0 : 1000 : 0"
       inkscape:vp_z="1832 : 397 : 1"
       inkscape:persp3d-origin="916 : 264.66667 : 1"
       id="perspective10" /></defs><path
     inkscape:connector-curvature="0"
     style="fill:#c95349;fill-opacity:1;stroke-width:0.0534169"
     d="m 1.9658677,-3.1906476 c -0.010659,0 -0.010659,0.021567 -0.010659,0.037589 -0.02132,14.0412546 -0.02132,28.1683886 0.0055,42.2042816 0.016165,0 0.016505,0.01613 0.037615,0.01068 H 13.804547 c 0.0055,-0.0051 0.01066,-0.01068 0.01066,-0.02681 0,-4.571547 -0.02132,-9.057308 -0.02683,-13.628865 3.859107,-0.02681 7.771993,-4.1e-5 11.652453,-0.01068 V 13.870021 c -3.853777,-0.0051 -7.739981,0.02136 -11.567145,-0.01068 0.01616,-1.777235 -0.03198,-3.730963 0.02682,-5.4974661 h 14.16277 C 27.80742,4.5129789 27.551461,0.66377477 27.284947,-3.1797602 c -0.0055,-0.010681 -0.01066,-0.010681 -0.02682,-0.010681 z m 60.1150733,0.064497 c -0.02682,-0.00514 3.6e-5,0.037692 0.01066,0.037692 3.896449,6.7824103 7.829689,13.5273346 11.704821,20.3258076 -3.64589,6.322029 -7.23281,12.724391 -10.873405,19.041059 -0.522368,0.90469 -1.044806,1.803845 -1.535231,2.724588 4.32818,-0.01068 8.656292,0.02136 13.02178,0.01058 1.945543,-3.538439 3.843429,-7.130169 5.794335,-10.663247 1.822962,3.318965 3.656515,6.659312 5.490102,9.983607 0.06396,0.112397 0.287694,0.652753 0.41031,0.652753 H 99.435038 C 95.26678,31.690407 90.992307,24.383662 86.797367,17.07129 90.571201,10.390596 94.440933,3.6988911 98.220132,-2.9711121 c 0.02681,-0.042827 0.06372,-0.1015721 0.05306,-0.1551106 h -12.94724 c -1.668404,3.01915737 -3.294,6.0812339 -4.978358,9.0843493 -1.620403,-3.0298692 -3.224508,-6.07591403 -4.871559,-9.0843493 z m -14.155368,0.5701699 c -0.200634,0 -0.40051,0.00411 -0.599046,0.013454 h -0.02682 c -1.625732,0 -3.128917,0.230237 -4.488136,0.5674791 -1.359219,0.3372421 -2.606482,0.8025021 -3.720504,1.34851647 -2.841017,1.3971869 -5.19185,3.24961013 -7.046791,5.61567613 -1.854939,2.3714681 -3.320817,5.122779 -4.067064,8.634433 -0.293162,1.391816 -0.495309,2.997744 -0.458001,4.625086 0.07998,3.286839 0.772619,5.984827 1.828016,8.32414 1.572437,3.49023 3.885824,6.257942 6.854752,8.350996 2.968963,2.087713 6.636205,3.608378 11.604074,3.608378 3.176852,0 5.932664,-0.840707 8.214007,-1.916663 1.146034,-0.540704 2.180354,-1.183207 3.17183,-1.889806 1.47647,-1.054574 2.798381,-2.323332 3.891085,-3.715137 0.373107,-0.471104 0.719289,-0.96356 1.060418,-1.477469 2.014827,-3.029859 3.464649,-6.755482 3.464649,-11.78205 0,-1.6113 -0.196817,-3.142646 -0.537945,-4.534452 C 66.393139,10.481147 65.347885,8.136433 63.956689,6.1825301 61.845894,3.2008487 59.223733,0.81356437 55.705754,-0.78167283 54.57038,-1.2955415 53.296709,-1.7612533 51.921466,-2.0663703 50.764807,-2.3239774 49.330218,-2.5529512 47.925612,-2.5559398 Z m -0.311627,8.4456875 c 1.07596,-0.01027 1.937118,0.5310302 2.521758,1.1282518 0.31981,0.3265509 0.591723,0.7282281 0.7676,1.1671861 0.191899,0.4818053 0.266617,0.995674 0.266617,1.659467 V 25.314942 c 0,0.679856 0.03727,1.338277 -0.09068,1.852197 -0.351753,1.445344 -1.514222,2.500195 -3.097284,2.671491 -1.225945,0.133831 -2.174681,-0.391119 -2.787688,-1.017436 -0.474369,-0.487115 -0.836299,-1.139909 -0.948255,-1.953585 -0.04264,-0.283714 -0.02682,-0.604955 -0.02682,-0.936846 V 10.459785 c 0,-0.6691536 -0.0059,-1.3167916 0.116838,-1.8253404 0.239901,-1.0010658 0.826157,-1.755945 1.599016,-2.2484313 0.415743,-0.2622902 0.890283,-0.4440725 1.460687,-0.4868787 0.07359,-0.00616 0.146513,-0.00924 0.218239,-0.00924 z M 9.5304532,42.495731 c -3.1746504,0 -5.5936674,1.429117 -6.8560941,4.075764 -0.4290495,0.899463 -0.5373601,1.369735 -0.6044097,2.627175 -0.1971613,3.698233 1.8211054,6.589824 5.2255123,7.487367 1.3558837,0.357453 3.3109153,0.330884 4.6089983,-0.06244 1.168832,-0.354198 2.917591,-1.441226 2.960298,-1.840109 l -2.146349,-2.215539 -0.380773,0.341853 C 10.827469,54.26445 8.193172,54.194952 6.8327503,52.764078 5.2611724,51.111123 5.4210604,47.849466 7.1443418,46.402263 8.5913439,45.187156 10.889636,45.159509 12.172418,46.341773 l 0.389507,0.359282 2.279313,-2.25445 -0.661488,-0.568825 c -0.929,-0.799297 -2.28619,-1.261055 -4.004588,-1.362617 -0.2182394,-0.01315 -0.4330721,-0.0192 -0.6447088,-0.01962 z m 6.7278048,0.0051 v 14.441473 h 3.393438 v -6.08983 h 5.429001 v 6.08983 H 28.47417 V 42.500866 h -3.393473 v 5.394056 h -5.429001 v -5.394056 z m 19.276799,0 -5.866852,14.441473 h 3.624469 l 1.000657,-2.707775 h 5.517642 l 1.026136,2.707775 h 3.782293 l -5.84536,-14.441473 z m 10.637699,0 v 14.441473 h 3.427719 l 0.09604,-9.30867 5.934004,9.30867 h 4.094575 c -0.0034,-3e-5 0,-14.440826 0,-14.440826 h -3.427033 l 0.0062,9.414094 -6.064975,-9.413406 z m 15.773226,0 v 14.441473 h 3.482082 l 0.09806,-9.30867 6.0287,9.30867 h 4.159697 c -0.0034,-3e-5 0,-14.440826 0,-14.440826 h -3.482083 l 0.0069,9.414094 -6.161665,-9.413406 z m 15.860496,0 v 14.441473 h 9.886879 v -2.957608 h -6.591471 v -2.958265 h 5.897729 v -2.783806 h -5.897729 v -2.78435 h 6.244257 v -2.957543 z m 12.158146,0 v 14.441473 h 8.822439 v -2.957608 h -5.429 v -11.48383 z m -52.821164,4.164406 1.7555,4.775555 h -3.673501 z"
     id="path1371_1_-4" /></svg>