<svg width="560" height="400" viewBox="0 0 560 400" fill="none" xmlns="http://www.w3.org/2000/svg">
<path d="M91.5888 242.953H68.5441V210.09H53.6356V242.953H30V158.183H53.5901V189.818H68.4987V158.183H91.5434L91.5888 242.953ZM197.222 243.316C220.812 243.316 240.084 223.681 240.084 199.772C240.084 175.501 220.812 156.728 197.222 156.728C173.313 156.728 161.223 174.092 158.314 181.182C158.314 170.683 147.814 158.137 135.633 158.137H96.2705V242.953H132.906C147.814 242.953 158.314 230.226 158.314 219.045C161.632 225.953 173.359 243.316 197.222 243.316ZM129.997 208.863C133.406 208.863 136.133 212.181 136.133 215.954C136.133 219.908 133.406 223.226 129.997 223.226H118.27V208.863H129.997ZM129.997 177.046C133.406 177.046 136.133 180.364 136.133 184.137C136.133 187.909 133.406 191.227 129.997 191.227H118.27V177.046H129.997ZM145.496 199.772C148.223 199.591 152.678 196.454 154.359 194.591C153.723 196.863 153.723 204.045 154.359 206.318C152.496 203.545 148.223 200.272 145.496 199.772ZM175.722 199.772C175.722 187.818 185.449 178.182 197.403 178.228C209.403 178.319 218.948 188.091 218.812 200.091C218.63 211.908 209.085 221.408 197.267 221.408C185.358 221.408 175.722 211.772 175.722 199.772ZM197.222 216.772C206.403 216.772 214.13 209.227 214.13 199.772C214.13 190.318 206.403 182.864 197.222 182.864C187.767 182.864 180.222 190.318 180.222 199.772C180.222 209.227 187.767 216.772 197.222 216.772Z" fill="white"/>
<path d="M363.261 188.182C362.807 167.637 348.262 156.774 330.444 156.774C320.672 156.774 311.854 160.047 305.854 166.41C299.854 160.047 291.037 156.774 281.264 156.774C263.447 156.774 248.902 167.683 248.447 188.227V235.226C248.447 239.544 251.947 242.998 256.22 242.998H263.583C264.31 242.998 264.901 242.407 264.901 241.68V188.318C265.219 178.182 272.401 172.819 281.264 172.819C290.128 172.819 297.309 178.182 297.627 188.318V235.18C297.627 239.498 301.127 242.953 305.4 242.953H312.763C313.49 242.953 314.081 242.362 314.081 241.635V188.273C314.399 178.137 321.581 172.773 330.444 172.773C339.308 172.773 346.489 178.137 346.807 188.273V235.135C346.807 239.453 350.307 242.907 354.58 242.907H361.943C362.671 242.907 363.261 242.316 363.261 241.589V188.227C363.307 188.273 363.261 188.227 363.261 188.182ZM529.029 158.092H516.529C513.075 158.092 509.847 159.819 507.893 162.683L494.075 183.137C492.257 185.818 488.348 185.818 486.53 183.137L472.712 162.683C470.803 159.819 467.531 158.092 464.076 158.092H451.577C450.804 158.092 450.349 158.956 450.758 159.592L475.394 196.136C477.167 198.772 477.167 202.227 475.394 204.863L450.758 241.407C450.304 242.044 450.804 242.907 451.577 242.907H464.076C467.531 242.907 470.758 241.18 472.712 238.317L486.53 217.863C488.348 215.181 492.257 215.181 494.075 217.863L507.893 238.317C509.802 241.18 513.075 242.907 516.529 242.907H529.029C529.801 242.907 530.256 242.044 529.847 241.407L505.166 204.909C503.393 202.272 503.393 198.818 505.166 196.182L529.801 159.637C530.256 159.001 529.801 158.092 529.029 158.092ZM445.122 158.092H437.759C434.032 158.092 430.895 160.728 430.123 164.228C423.578 159.228 415.351 156.683 406.487 156.683C384.942 156.683 367.443 171.682 367.443 200C367.443 228.317 384.897 243.316 406.487 243.316C415.305 243.316 423.441 240.817 429.986 235.908C430.35 239.862 433.668 242.998 437.759 242.998H445.122C445.849 242.998 446.44 242.407 446.44 241.68V159.41C446.395 158.683 445.849 158.092 445.122 158.092ZM406.487 227.226C393.624 227.226 383.17 217.817 383.17 200.045C383.17 182.273 393.624 172.864 406.487 172.864C419.35 172.864 429.805 182.273 429.805 200.045C429.805 217.817 419.35 227.226 406.487 227.226Z" fill="url(#paint0_linear_7_2)"/>
<defs>
<linearGradient id="paint0_linear_7_2" x1="248.433" y1="200.004" x2="376.399" y2="200.004" gradientUnits="userSpaceOnUse">
<stop stop-color="#991EEB"/>
<stop offset="0.4" stop-color="#5822B4"/>
<stop offset="0.73" stop-color="#5822B4"/>
<stop offset="1" stop-color="#991EEB"/>
</linearGradient>
</defs>
</svg>
