<?xml version="1.0" encoding="UTF-8" standalone="no"?>
<svg
   xmlns:dc="http://purl.org/dc/elements/1.1/"
   xmlns:cc="http://creativecommons.org/ns#"
   xmlns:rdf="http://www.w3.org/1999/02/22-rdf-syntax-ns#"
   xmlns:svg="http://www.w3.org/2000/svg"
   xmlns="http://www.w3.org/2000/svg"
   xmlns:sodipodi="http://sodipodi.sourceforge.net/DTD/sodipodi-0.dtd"
   xmlns:inkscape="http://www.inkscape.org/namespaces/inkscape"
   width="100"
   height="43"
   viewBox="0 0 100 43"
   version="1.1"
   id="svg14"
   inkscape:version="1.0.2-2 (e86c870879, 2021-01-15)"
   sodipodi:docname="The History Channel logo.svg">
  <title
     id="title49">National Geographic Kids logo</title>
  <defs
     id="defs8">
    <mask
       id="mask-2"
       fill="#ffffff">
      <polygon
         id="use7"
         points="0.00124,185.95443 0.00124,0.00093 958.3805,0.00093 958.3805,185.95443 "
         transform="scale(0.26458334)" />
    </mask>
    <mask
       id="mask-2-1"
       fill="#ffffff">
      <polygon
         id="use7-1"
         points="0.00124,185.95443 0.00124,0.00093 958.3805,0.00093 958.3805,185.95443 "
         transform="scale(0.26458334)" />
    </mask>
    <mask
       id="mask-2-0"
       fill="#ffffff">
      <polygon
         id="use7-4"
         points="0.00124,185.95443 0.00124,0.00093 958.3805,0.00093 958.3805,185.95443 "
         transform="scale(0.26458334)" />
    </mask>
    <mask
       id="mask-2-4"
       fill="#ffffff">
      <polygon
         id="use7-2"
         points="0.00124,185.95443 0.00124,0.00093 958.3805,0.00093 958.3805,185.95443 "
         transform="scale(0.26458334)" />
    </mask>
    <mask
       id="mask-2-4-1"
       fill="#ffffff">
      <polygon
         id="use7-2-9"
         points="0.00124,185.95443 0.00124,0.00093 958.3805,0.00093 958.3805,185.95443 "
         transform="scale(0.26458334)" />
    </mask>
    <mask
       id="mask-2-42"
       fill="#ffffff">
      <polygon
         id="use7-5"
         points="0.00124,185.95443 0.00124,0.00093 958.3805,0.00093 958.3805,185.95443 "
         transform="scale(0.26458334)" />
    </mask>
    <mask
       id="mask-2-42-4"
       fill="#ffffff">
      <polygon
         id="use7-5-5"
         points="0.00124,185.95443 0.00124,0.00093 958.3805,0.00093 958.3805,185.95443 "
         transform="scale(0.26458334)" />
    </mask>
    <mask
       id="mask-2-42-6"
       fill="#ffffff">
      <polygon
         id="use7-5-0"
         points="0.00124,185.95443 0.00124,0.00093 958.3805,0.00093 958.3805,185.95443 "
         transform="scale(0.26458334)" />
    </mask>
    <mask
       id="mask-2-42-8"
       fill="#ffffff">
      <polygon
         id="use7-5-2"
         points="0.00124,185.95443 0.00124,0.00093 958.3805,0.00093 958.3805,185.95443 "
         transform="scale(0.26458334)" />
    </mask>
    <mask
       id="mask-2-42-7"
       fill="#ffffff">
      <polygon
         id="use7-5-3"
         points="0.00124,185.95443 0.00124,0.00093 958.3805,0.00093 958.3805,185.95443 "
         transform="scale(0.26458334)" />
    </mask>
    <mask
       id="mask-2-42-5"
       fill="#ffffff">
      <polygon
         id="use7-5-56"
         points="0.00124,185.95443 0.00124,0.00093 958.3805,0.00093 958.3805,185.95443 " />
    </mask>
    <mask
       id="mask-2-42-59"
       fill="#ffffff">
      <polygon
         id="use7-5-55"
         points="0.00124,185.95443 0.00124,0.00093 958.3805,0.00093 958.3805,185.95443 " />
    </mask>
  </defs>
  <sodipodi:namedview
     id="base"
     pagecolor="#ffffff"
     bordercolor="#666666"
     borderopacity="1.0"
     inkscape:pageopacity="0.0"
     inkscape:pageshadow="2"
     inkscape:zoom="7.9999999"
     inkscape:cx="68.17839"
     inkscape:cy="32.526821"
     inkscape:document-units="px"
     inkscape:current-layer="layer1"
     inkscape:document-rotation="0"
     showgrid="false"
     units="px"
     inkscape:showpageshadow="false"
     inkscape:window-width="1366"
     inkscape:window-height="745"
     inkscape:window-x="-8"
     inkscape:window-y="-8"
     inkscape:window-maximized="1"
     scale-x="1" />
  <metadata
     id="metadata11">
    <rdf:RDF>
      <cc:Work
         rdf:about="">
        <dc:format>image/svg+xml</dc:format>
        <dc:type
           rdf:resource="http://purl.org/dc/dcmitype/StillImage" />
        <dc:title>National Geographic Kids logo</dc:title>
        <dc:date>5-jul-2021</dc:date>
        <cc:license
           rdf:resource="http://scripts.sil.org/OFL" />
      </cc:Work>
      <cc:License
         rdf:about="http://scripts.sil.org/OFL">
        <cc:permits
           rdf:resource="http://scripts.sil.org/pub/OFL/Reproduction" />
        <cc:permits
           rdf:resource="http://scripts.sil.org/pub/OFL/Distribution" />
        <cc:permits
           rdf:resource="http://scripts.sil.org/pub/OFL/Embedding" />
        <cc:permits
           rdf:resource="http://scripts.sil.org/pub/OFL/DerivativeWorks" />
        <cc:requires
           rdf:resource="http://scripts.sil.org/pub/OFL/Notice" />
        <cc:requires
           rdf:resource="http://scripts.sil.org/pub/OFL/Attribution" />
        <cc:requires
           rdf:resource="http://scripts.sil.org/pub/OFL/ShareAlike" />
        <cc:requires
           rdf:resource="http://scripts.sil.org/pub/OFL/DerivativeRenaming" />
        <cc:requires
           rdf:resource="http://scripts.sil.org/pub/OFL/BundlingWhenSelling" />
      </cc:License>
    </rdf:RDF>
  </metadata>
  <g
     inkscape:label="Capa 1"
     inkscape:groupmode="layer"
     id="layer1">
    <g
       id="g164">
      <path
         d="m 717.87134,52.22229 c -7.3036,0 -13.3548,2.4459 -18.1195,7.3315 -4.7647,4.8856 -7.6694,8.835 -8.7327,16.7059 h 53.1247 c -0.3875,-3.689 -1.2338,-4.7213 -2.5637,-7.9639 -1.3051,-3.2426 -3.0721,-6.0636 -5.2731,-8.4599 -2.2258,-2.4211 -4.8639,-4.2997 -7.936,-5.6172 -3.0721,-1.3144 -6.5565,-1.9964 -10.4997,-1.9964 z m -212.7561,1.3144 c -4.4857,0 -8.556,0.8463 -12.1923,2.5637 -3.658,1.7143 -6.8076,3.9959 -9.4085,6.8603 -2.6009,2.8427 -4.6004,6.2031 -5.9582,10.0812 -1.3795,3.8781 -2.046,8.0352 -2.046,12.4775 v 0.3751 c 0,4.3245 0.7595,8.4351 2.232,12.3597 1.4942,3.9494 3.565,7.378 6.2558,10.3881 2.6691,2.9853 5.8435,5.3103 9.5015,7.0246 3.658,1.7174 7.6601,2.5854 12.0094,2.5854 4.5973,0 8.7389,-0.868 12.3969,-2.5854 3.6797,-1.7143 6.8076,-4.0176 9.4085,-6.9316 2.6009,-2.914 4.5787,-6.2961 5.9582,-10.1742 1.3578,-3.8781 2.0491,-7.967 2.0491,-12.2667 v -0.3751 c 0,-4.4423 -0.7595,-8.649 -2.2568,-12.5736 -1.4942,-3.9463 -3.565,-7.3532 -6.2341,-10.2889 -2.6691,-2.914 -5.8435,-5.2421 -9.4984,-6.9564 -3.658,-1.7174 -7.7314,-2.5637 -12.2171,-2.5637 z m 0.3937,-20.1624 c 7.5888,0 14.5576,1.364 20.9777,4.092 6.3953,2.7249 11.9164,6.4604 16.585,11.2313 4.6469,4.7709 8.2832,10.292 10.881,16.5664 2.6009,6.2961 3.9122,13.0417 3.9122,20.2802 v 0.3751 c 0,7.0959 -1.3361,13.8167 -4.0021,20.1624 -2.6939,6.3426 -6.3271,11.9133 -10.9988,16.6594 -4.6469,4.7709 -10.2114,8.5312 -16.6532,11.3274 -6.4635,2.7962 -13.4819,4.2036 -21.0738,4.2036 -7.4493,0 -14.3747,-1.3609 -20.77,-4.0889 -6.3953,-2.7249 -11.9381,-6.4387 -16.585,-11.1383 -4.6717,-4.6965 -8.2832,-10.2207 -10.9058,-16.5664 -2.6226,-6.3426 -3.9091,-13.0634 -3.9091,-20.1841 v -0.3751 c 0,-7.2385 1.333,-14.0275 4.0021,-20.3732 2.6691,-6.3457 6.3488,-11.8916 10.9957,-16.6625 4.6469,-4.7678 10.1897,-8.5281 16.585,-11.3243 6.3953,-2.7962 13.3889,-4.185 20.9591,-4.185 z m 77.5124,0 27.4691,76.5204 27.6892,-76.5204 h 24.583 l -41.8066,104.8978 h -21.0955 l -41.9957,-104.8978 z m 135.067,0 c 8.2274,0 15.4349,1.4601 21.6535,4.3741 6.1938,2.914 11.3708,6.8603 15.4814,11.7955 4.1106,4.9569 7.2106,10.6888 9.2907,17.2236 2.0801,6.5317 3.1465,13.4199 3.1465,20.6553 0,1.0106 -0.0248,2.0677 -0.0992,3.1496 -0.0713,1.0819 -0.1674,2.1855 -0.2914,3.3356 h -76.0337 c 1.3082,8.2491 4.6717,14.57 10.0905,18.941 5.4188,4.3927 11.9722,6.5782 19.6912,6.5782 5.8776,0 10.9585,-1.0075 15.2892,-3.0535 4.3307,-2.0212 8.5622,-5.0065 12.7224,-8.9528 l 13.9345,12.0063 c -4.9817,5.7102 -10.8841,10.2703 -17.7568,13.702 -6.8448,3.4317 -15.0474,5.1429 -24.5768,5.1429 -7.4524,0 -14.3933,-1.2896 -20.8785,-3.8037 -6.4573,-2.5389 -12.0714,-6.0884 -16.8609,-10.6702 -4.7647,-4.557 -8.5157,-10.0564 -11.2499,-16.4734 -2.7559,-6.4139 -4.1106,-13.485 -4.1106,-21.2164 v -0.3999 c 0,-7.2137 1.2338,-14.0058 3.7231,-20.3732 2.4676,-6.3457 5.9768,-11.8916 10.4749,-16.6377 4.526,-4.7709 9.8239,-8.5064 15.9681,-11.2313 6.1442,-2.728 12.9425,-4.092 20.3918,-4.092 z m -311.8166,0 c 19.5052,0 31.5952,7.0556 41.1556,17.329 l -14.6165,15.4194 c -7.2013,-7.4276 -14.8087,-12.5767 -26.7065,-12.5767 -17.1709,0 -29.6453,14.4832 -29.6453,32.1842 0,18.1009 12.6697,32.5593 30.8016,32.5593 11.1259,0 19.2882,-5.1491 26.7034,-12.5767 l 14.2352,13.7082 c -10.1401,11.0484 -22.0348,18.8511 -42.1197,18.8511 -30.628,0 -53.2425,-23.4143 -53.2425,-52.1637 0,-28.7525 22.6362,-52.7341 53.4347,-52.7341 z m 403.5642,0 v 17.3414 c 8.7017,-11.2561 22.8935,-15.2799 30.9566,-16.7524 l 7.9236,20.0384 c -10.0223,1.5717 -29.4252,6.9905 -36.3816,26.071 -1.86,5.1026 -2.4986,11.2592 -2.4986,18.2714 v 39.928 h -23.1043 V 33.37429 Z m 73.4204,0 24.4745,76.5855 26.2229,-76.5855 h 24.428 c 0,0 -44.8384,118.5998 -50.6757,130.6929 -5.3599,11.0918 -7.1052,13.2897 -14.9513,18.3458 -6.2682,4.0548 -25.6742,3.5185 -33.9295,3.5185 v -19.5672 c 4.7399,0.3162 17.2267,0.5363 22.5618,-2.2475 6.9409,-5.1305 14.5979,-26.2849 14.5979,-26.2849 l 0.2852,-0.7099 -38.0184,-103.7477 z"
         id="Fill-1-0-9"
         fill="#ffffff"
         mask="url(#mask-2-4-1)"
         style="fill:#000000"
         transform="matrix(0.09507992,0,0,0.09507992,420.63818,151.43501)"
         sodipodi:nodetypes="sscccccsscccsscscscscsscccsscccsscccscccssscssccccccccsccssccccsccccscscsscccssccsssccsssccccssccccccccccccccccc" />
    </g>
    <g
       id="g167" />
    <g
       id="g58"
       transform="matrix(0.31801829,0,0,0.31801829,8.5845888,-2.4579563)">
      <g
         transform="matrix(0.2563054,0,0,0.25640557,-109.84171,-122.08637)"
         id="layer1-1">
        <g
           transform="matrix(24.076131,0,0,24.076131,-8741.0636,-21861.856)"
           id="g14614">
          <path
             id="path2462"
             style="fill:#ffd800;fill-opacity:1;fill-rule:nonzero;stroke:none;stroke-width:6.17205"
             d="M 0,0 V 91.8125 H 64.056641 V 0 Z M 9.2363281,9.2421875 H 54.792969 V 82.566406 H 9.2363281 Z M 215.07227,90.351562 a 4.9474454,5.0038147 0 0 0 -4.94727,5.003907 4.9474454,5.0038147 0 0 0 4.94727,5.003911 4.9474454,5.0038147 0 0 0 4.94726,-5.003911 4.9474454,5.0038147 0 0 0 -4.94726,-5.003907 z m 55.17578,2.039063 c -1.33789,0.01177 -2.58819,0.110999 -3.45703,0.306641 -2.31691,0.521711 -5.23227,1.956761 -6.66407,3.287109 -3.22807,2.973742 -4.39848,8.948265 -2.57617,13.017575 1.35369,3.0259 3.69616,4.5651 9.9961,6.52149 4.16521,1.30426 5.18064,1.79965 6.09179,2.86914 1.30165,1.56512 0.67576,3.86101 -1.30273,4.82617 -1.79626,0.88689 -4.58078,0.67801 -8.4336,-0.65234 -3.54047,-1.17384 -4.71136,-1.25282 -5.96093,-0.33985 -1.24959,0.93908 -1.69274,1.82649 -1.79688,3.57422 -0.10422,1.66944 -0.10387,1.66851 1.01563,2.89453 1.3537,1.46077 2.31744,1.98349 5.36328,2.89649 3.0458,0.8869 7.88639,1.12145 10.75,0.52148 4.16524,-0.8869 7.60207,-3.23527 9.08594,-6.20898 1.06733,-2.1129 1.40555,-4.0172 1.27539,-6.96485 -0.15628,-3.33891 -0.8327,-5.08545 -2.70704,-6.9375 -1.71818,-1.74773 -3.87873,-2.81825 -9.0332,-4.43554 -2.10867,-0.67821 -4.21758,-1.48579 -4.66015,-1.79883 -1.56199,-1.04342 -1.37898,-3.26058 0.36523,-4.33008 1.2756,-0.78255 4.2431,-0.73189 6.89844,0.12891 3.54045,1.12166 5.4138,0.7054 6.5332,-1.4336 1.53592,-3.025875 -0.20727,-5.661007 -4.71094,-7.095701 -1.36672,-0.440196 -3.84245,-0.666098 -6.07226,-0.646484 z m -89.39063,0.4375 c -0.52064,0 -1.45723,0.261206 -2.08203,0.574219 -0.85906,0.443453 -1.32699,0.912606 -1.76953,1.773437 l -0.57422,1.173828 0.0527,16.486331 c 0.078,16.17289 0.0782,16.48515 0.625,17.18945 1.06736,1.43467 1.82163,1.80078 3.74804,1.80078 2.03056,0 2.86425,-0.44339 3.77539,-1.98242 0.4686,-0.80865 0.52023,-1.48787 0.65039,-7.95703 l 0.13086,-7.09375 7.18555,8.0332 c 5.54497,6.15616 7.47035,8.1386 8.35547,8.58203 3.69665,1.77382 7.75732,-1.38195 6.35156,-5.00781 -0.28636,-0.78257 -2.31604,-3.13099 -6.92383,-8.11328 -3.59253,-3.86063 -6.50781,-7.09556 -6.50781,-7.17383 0,-0.0783 2.34276,-2.50368 5.23242,-5.37305 5.72719,-5.71268 6.74219,-6.990266 6.74219,-8.529292 0,-3.365 -4.24442,-5.530072 -6.92578,-3.521485 -0.44255,0.313013 -3.64375,3.677294 -7.15821,7.433597 l -6.35156,6.88672 -0.13086,-6.10352 c -0.13015,-5.477895 -0.18179,-6.15549 -0.65039,-6.990234 -0.62478,-1.095573 -2.44773,-2.087891 -3.77539,-2.087891 z m 51.35742,0.271484 c -3.13043,0.02283 -6.05945,0.14677 -6.6582,0.355469 -0.5467,0.208668 -1.22473,0.572449 -1.53711,0.859375 -1.2756,1.147768 -1.24805,0.809545 -1.24805,18.156247 v 16.27735 l 0.59766,0.88672 c 0.31238,0.49561 1.09331,1.14721 1.74414,1.48632 1.17148,0.59996 1.24986,0.60043 8.46094,0.4961 6.53422,-0.1044 7.49733,-0.15604 9.18945,-0.67774 5.12845,-1.51296 8.66877,-4.59066 11.01172,-9.54687 1.24956,-2.68678 1.79688,-5.37415 1.79688,-9 0,-3.49544 -0.52189,-6.26074 -1.69336,-8.79102 -2.7074,-5.869178 -7.34077,-9.312882 -13.79688,-10.251951 -1.40578,-0.19564 -4.73675,-0.272832 -7.86719,-0.25 z m 1.65821,8.052731 c 2.17591,0.0283 5.23218,0.35925 6.46875,0.83204 1.11941,0.41737 1.97952,0.99106 3.04687,2.06054 2.00451,2.00859 2.68164,4.09534 2.68164,8.2168 0,5.86919 -2.03079,9.26119 -6.40429,10.74805 -1.06735,0.36521 -2.18774,0.46875 -4.79102,0.46875 h -3.38281 l -0.0781,-10.82618 c -0.0261,-5.94746 1.3e-4,-10.98077 0.0781,-11.18945 0.0879,-0.23477 1.07531,-0.32751 2.38086,-0.31055 z m -19.14063,1.47266 c -0.30817,0.003 -0.62446,0.0402 -0.94336,0.11523 -1.24958,0.28695 -2.13366,0.99273 -2.73242,2.21875 -0.52065,1.09558 -0.54685,1.40751 -0.46875,12.72852 0.078,11.26887 0.10444,11.63359 0.625,12.33789 0.91115,1.25209 1.82147,1.74917 3.2793,1.85352 1.77023,0.13042 3.17603,-0.65378 3.95703,-2.14063 0.52064,-0.99126 0.54691,-1.48544 0.625,-11.3457 0.0521,-5.66051 -1.3e-4,-10.90368 -0.0781,-11.66016 -0.29611,-2.46506 -2.10646,-4.13131 -4.26367,-4.10742 z"
             transform="matrix(0.16205243,0,0,0.16198912,376.71325,929.27845)" />
        </g>
      </g>
      <path
         d="m 285.42948,65.413439 c -1.34154,-0.84711 -3.58074,-1.822291 -5.72131,-1.822291 -5.69174,0 -9.85448,4.698555 -9.85448,12.096059 0,7.732422 4.57705,12.30292 9.99259,12.30292 2.14055,0 4.15287,-0.698971 5.5832,-1.635139 l 1.54871,4.048434 c -1.6868,1.172182 -4.66583,2.236003 -7.36867,2.236003 -9.60786,0 -15.66457,-7.44676 -15.66457,-17.04087 0,-8.884885 6.01724,-16.666555 15.76322,-16.666555 2.89025,0 5.58322,1.221427 7.50676,2.511808 z m -25.16393,26.664517 h -5.54636 V 59.493469 h 5.54636 z m -10.91984,0 h -5.59307 V 76.396421 H 232.1423 v 15.681535 h -5.54376 V 59.493469 h 5.54376 v 12.529468 h 11.61034 V 59.591969 h 5.59307 z m -39.16145,0 h -5.59307 V 59.493469 h 8.72007 c 6.24414,0 10.11095,3.073264 10.11095,9.406948 0,5.486571 -4.05424,10.894329 -10.72254,10.894329 h -2.51541 z m 0,-16.351343 c 0.43404,-0.03939 1.77559,-0.07879 2.32799,-0.128452 2.66336,-0.137897 5.31687,-2.098095 5.31687,-6.47158 0,-3.34908 -1.85449,-5.26001 -5.12945,-5.26001 h -2.51541 V 75.726219 Z M 187.76261,59.493469 h 4.65597 l 10.40689,32.584487 h -6.25401 l -2.56471,-8.884885 h -9.83476 l -2.85079,8.884885 h -4.84341 z m -2.15043,19.690563 h 7.55609 c -1.21331,-4.274993 -2.3773,-8.234776 -3.6794,-13.258381 -1.26264,5.023604 -2.56473,8.983387 -3.87669,13.258381 z m -9.22316,12.893924 h -6.40195 l -5.26757,-12.28321 h -2.50554 v 12.28321 h -5.60295 V 59.493469 h 8.72008 c 6.254,0 10.12081,3.073264 10.12081,9.406948 0,3.910536 -2.05178,7.771818 -5.63253,9.682751 z M 162.21396,63.866963 v 11.869499 c 0.46402,-0.04727 1.76571,-0.08903 2.32799,-0.137907 2.6535,-0.137896 5.31686,-2.098096 5.31686,-6.471579 0,-3.349081 -1.86435,-5.260013 -5.17877,-5.260013 z M 151.49142,77.184438 V 90.63983 c -2.9889,1.162322 -6.1159,1.999595 -9.28235,1.999595 -9.60788,0 -15.67445,-7.44676 -15.67445,-17.04087 0,-8.884885 6.06657,-16.666555 15.852,-16.666555 3.03823,0 6.06657,1.122926 7.93094,2.511808 l -1.81504,3.871131 c -1.49938,-0.935774 -3.83723,-1.723791 -5.9778,-1.723791 -5.95806,0 -10.02216,4.698555 -10.02216,12.096059 0,7.732422 4.65597,12.30292 9.46975,12.30292 1.48952,0 2.7423,-0.197013 3.91616,-0.788018 V 77.184438 Z m -40.71016,15.454987 c -8.53266,0 -13.84954,-7.584667 -13.84954,-17.316675 0,-9.121294 5.86928,-16.39075 13.84954,-16.39075 7.9704,0 13.84955,7.269456 13.84955,16.39075 0,9.732007 -5.3169,17.316675 -13.84955,17.316675 z m 0,-4.649298 c 5.81997,0 7.87175,-6.422347 7.87175,-12.667377 0,-5.998773 -2.32799,-11.731602 -7.87175,-11.731602 -5.55362,0 -7.88161,5.732829 -7.88161,11.731602 0,6.24503 2.05179,12.667377 7.88161,12.667377 z M 93.52853,63.866963 h -9.33169 v 8.94399 h 9.14427 v 4.373485 h -9.14427 v 10.520023 h 11.00862 v 4.373494 H 78.60377 V 59.493469 H 93.52853 Z M 73.523632,77.184438 V 90.63983 c -2.988891,1.162322 -6.106029,1.999595 -9.282347,1.999595 -9.598004,0 -15.654711,-7.44676 -15.654711,-17.04087 0,-8.884885 6.056707,-16.666555 15.851995,-16.666555 3.018498,0 6.05671,1.122926 7.921078,2.511808 l -1.824906,3.871131 c -1.479653,-0.935774 -3.817507,-1.723791 -5.958065,-1.723791 -5.977793,0 -10.032036,4.698555 -10.032036,12.096059 0,7.732422 4.665833,12.30292 9.479636,12.30292 1.479653,0 2.742285,-0.197013 3.906275,-0.788018 V 77.184438 Z M 220.00915,17.33457 h 5.55363 v 28.211003 h 11.04806 v 4.373483 h -16.60169 z m -16.68061,0 h 4.66584 l 10.38716,32.584486 h -6.24413 l -2.56474,-8.894734 h -9.83475 l -2.85079,8.894734 h -4.84339 z m -2.14056,19.700412 h 7.54623 c -1.21333,-4.294682 -2.37731,-8.244625 -3.68927,-13.278078 -1.25277,5.033453 -2.56472,8.983396 -3.85696,13.278078 z m -10.64363,12.884074 h -4.05423 C 181.17323,42.432901 175.90567,34.976292 170.62825,26.554364 l -0.0316,23.364693 h -4.4784 V 17.33457 h 4.04438 c 5.32674,7.446759 10.5943,14.854112 15.81254,23.226795 l 0.0986,-23.226795 h 4.46854 v 32.584486 z m -41.68671,0.561075 c -8.53266,0 -13.84955,-7.584667 -13.84955,-17.316674 0,-9.131143 5.87915,-16.39075 13.84955,-16.39075 7.98025,0 13.8594,7.259608 13.8594,16.39075 0,9.732007 -5.31688,17.316674 -13.8594,17.316674 z m 0,-4.649299 c 5.83969,0 7.88161,-6.432193 7.88161,-12.667375 0,-6.008622 -2.32799,-11.731591 -7.88161,-11.731591 -5.54376,0 -7.87175,5.722969 -7.87175,11.731591 0,6.235181 2.05178,12.667375 7.87175,12.667375 z m -17.24287,4.087831 h -5.54985 V 17.327321 h 5.54985 z m -21.54374,0 V 21.70767 h -8.57212 v -4.373494 h 22.74718 v 4.373494 h -8.58198 V 49.918662 Z M 89.74062,17.334176 h 4.66583 l 10.38715,32.584486 h -6.23426 l -2.56473,-8.894734 h -9.83475 l -2.8508,8.894734 h -4.84339 z m -2.14057,19.700411 h 7.54623 c -1.20346,-4.29468 -2.36745,-8.244624 -3.67941,-13.278078 -1.26263,5.033453 -2.56472,8.983398 -3.86682,13.278078 z M 76.96629,49.918662 H 72.912043 C 67.595161,42.432507 62.3276,34.975899 57.06004,26.553972 l -0.03945,23.36469 H 52.542176 V 17.334176 h 4.044381 c 5.326749,7.446759 10.584446,14.854112 15.812542,23.226795 l 0.09865,-23.226795 H 76.9663 Z"
         id="path2468"
         style="fill:#000000;fill-opacity:1;fill-rule:nonzero;stroke:none;stroke-width:7.88582"
         sodipodi:nodetypes="csssccssscccccccccccccccccccccccsssccccsscccccccccccccccccccccccsscccccsscccsssccssscccsssssssssscccccccccccccccsssccssscccccccccccccccccccccccccccccccccccsssssssssscccccccccccccccccccccccccccccccccccccc" />
    </g>
  </g>
</svg>
