<svg width="100" height="43" viewBox="0 0 100 43" fill="none" xmlns="http://www.w3.org/2000/svg">
<g clip-path="url(#clip0_7_66)">
<path d="M0.448029 0.430969V29.629H20.8192V0.430969H0.448029ZM3.38535 3.37015H17.8732V26.6886H3.38535V3.37015ZM68.8449 29.1644C68.4277 29.1644 68.0275 29.3321 67.7324 29.6305C67.4374 29.929 67.2716 30.3337 67.2716 30.7558C67.2716 31.1778 67.4374 31.5825 67.7324 31.881C68.0275 32.1794 68.4277 32.3471 68.8449 32.3471C69.2622 32.3471 69.6624 32.1794 69.9575 31.881C70.2525 31.5825 70.4183 31.1778 70.4183 30.7558C70.4183 30.3337 70.2525 29.929 69.9575 29.6305C69.6624 29.3321 69.2622 29.1644 68.8449 29.1644ZM86.3918 29.8129C85.9664 29.8166 85.5688 29.8482 85.2925 29.9104C84.5556 30.0763 83.6285 30.5327 83.1732 30.9558C82.1466 31.9015 81.7744 33.8015 82.3539 35.0956C82.7844 36.0579 83.5293 36.5474 85.5328 37.1695C86.8574 37.5843 87.1804 37.7419 87.4701 38.082C87.8841 38.5797 87.685 39.3099 87.0558 39.6168C86.4846 39.8988 85.5991 39.8324 84.3738 39.4093C83.2479 39.036 82.8755 39.0109 82.4781 39.3013C82.0807 39.5999 81.9398 39.8821 81.9067 40.4379C81.8735 40.9688 81.8736 40.9685 82.2297 41.3584C82.6602 41.823 82.9666 41.9892 83.9353 42.2796C84.9039 42.5616 86.4433 42.6362 87.354 42.4454C88.6786 42.1634 89.7716 41.4165 90.2435 40.4708C90.5829 39.7989 90.6905 39.1933 90.6491 38.2559C90.5994 37.1941 90.3843 36.6386 89.7882 36.0496C89.2418 35.4938 88.5547 35.1534 86.9155 34.6391C86.2449 34.4234 85.5742 34.1665 85.4334 34.067C84.9367 33.7352 84.9949 33.0301 85.5496 32.69C85.9553 32.4411 86.899 32.4572 87.7434 32.7309C88.8694 33.0877 89.4651 32.9553 89.8211 32.275C90.3096 31.3128 89.7552 30.4747 88.3229 30.0185C87.8883 29.8785 87.101 29.8066 86.3918 29.8129ZM57.964 29.952C57.7984 29.952 57.5006 30.0351 57.3019 30.1346C57.0287 30.2757 56.8799 30.4249 56.7391 30.6986L56.5565 31.0719L56.5733 36.3149C56.5981 41.4581 56.5981 41.5574 56.772 41.7814C57.1115 42.2377 57.3513 42.3541 57.964 42.3541C58.6097 42.3541 58.8749 42.2131 59.1646 41.7237C59.3136 41.4665 59.3301 41.2505 59.3715 39.1932L59.4131 36.9372L61.6982 39.4919C63.4616 41.4497 64.0739 42.0802 64.3554 42.2212C65.531 42.7853 66.8224 41.7817 66.3753 40.6286C66.2842 40.3797 65.6388 39.6329 64.1734 38.0484C63.0309 36.8207 62.1038 35.7919 62.1038 35.767C62.1038 35.7421 62.8489 34.9708 63.7678 34.0583C65.5892 32.2416 65.912 31.8353 65.912 31.3458C65.912 30.2757 64.5622 29.5872 63.7094 30.2259C63.5687 30.3255 62.5507 31.3954 61.433 32.59L59.4131 34.7801L59.3715 32.839C59.3301 31.097 59.3136 30.8815 59.1646 30.616C58.9659 30.2676 58.3862 29.952 57.964 29.952ZM74.2966 30.0384C73.3011 30.0456 72.3696 30.085 72.1792 30.1514C72.0053 30.2178 71.7897 30.3334 71.6903 30.4247C71.2847 30.7897 71.2934 30.6821 71.2934 36.1987V41.3752L71.4835 41.6572C71.5828 41.8148 71.8312 42.022 72.0382 42.1299C72.4107 42.3207 72.4356 42.3208 74.7289 42.2876C76.8069 42.2544 77.1132 42.238 77.6513 42.0721C79.2823 41.591 80.4081 40.6122 81.1532 39.036C81.5506 38.1816 81.7247 37.327 81.7247 36.1739C81.7247 35.0623 81.5587 34.1828 81.1862 33.3782C80.3252 31.5117 78.8517 30.4165 76.7985 30.1179C76.3514 30.0556 75.2921 30.0311 74.2966 30.0384ZM74.8239 32.5993C75.5159 32.6083 76.4879 32.7135 76.8811 32.8639C77.2371 32.9966 77.5106 33.179 77.8501 33.5192C78.4875 34.1579 78.7029 34.8216 78.7029 36.1323C78.7029 37.9988 78.0571 39.0775 76.6662 39.5503C76.3268 39.6665 75.9705 39.6994 75.1426 39.6994H74.0668L74.0419 36.2565C74.0336 34.3651 74.042 32.7644 74.0668 32.698C74.0947 32.6234 74.4087 32.5939 74.8239 32.5993ZM68.7369 33.0676C68.6389 33.0686 68.5383 33.0804 68.4369 33.1042C68.0395 33.1955 67.7583 33.4199 67.5679 33.8098C67.4023 34.1583 67.394 34.2575 67.4188 37.8577C67.4436 41.4415 67.452 41.5574 67.6176 41.7814C67.9074 42.1796 68.1969 42.3377 68.6605 42.3709C69.2234 42.4124 69.6705 42.163 69.9189 41.6901C70.0844 41.3749 70.0928 41.2177 70.1176 38.082C70.1342 36.2818 70.1176 34.6144 70.0928 34.3738C69.9986 33.5899 69.4229 33.06 68.7369 33.0676Z" fill="#FFD800"/>
<path d="M99.3564 18.3447C98.9297 18.0753 98.2176 17.7652 97.5369 17.7652C95.7268 17.7652 94.403 19.2594 94.403 21.612C94.403 24.071 95.8586 25.5245 97.5808 25.5245C98.2616 25.5245 98.9015 25.3023 99.3564 25.0045L99.8489 26.292C99.3125 26.6648 98.3651 27.0031 97.5055 27.0031C94.4501 27.0031 92.5239 24.6349 92.5239 21.5838C92.5239 18.7582 94.4375 16.2835 97.5369 16.2835C98.4561 16.2835 99.3125 16.672 99.9242 17.0823L99.3564 18.3447ZM91.3538 26.8245H89.59V16.4621H91.3538V26.8245ZM87.8811 26.8245H86.1024V21.8375H82.4101V26.8245H80.6471V16.4621H82.4101V20.4467H86.1024V16.4934H87.8811V26.8245ZM75.427 26.8245H73.6483V16.4621H76.4215C78.4072 16.4621 79.6369 17.4394 79.6369 19.4537C79.6369 21.1985 78.3476 22.9183 76.227 22.9183H75.427V26.8245ZM75.427 21.6245C75.5651 21.612 75.9917 21.5995 76.1674 21.5837C77.0144 21.5398 77.8582 20.9164 77.8582 19.5256C77.8582 18.4605 77.2685 17.8528 76.227 17.8528H75.427V21.6245ZM68.2965 16.4621H69.7772L73.0868 26.8245H71.0979L70.2823 23.999H67.1547L66.248 26.8245H64.7078L68.2965 16.4621ZM67.6127 22.724H70.0156C69.6298 21.3645 69.2596 20.1052 68.8455 18.5076C68.444 20.1052 68.0299 21.3645 67.6127 22.724ZM64.6795 26.8245H62.6436L60.9684 22.9183H60.1716V26.8245H58.3898V16.4621H61.1629C63.1518 16.4621 64.3815 17.4394 64.3815 19.4537C64.3815 20.6973 63.729 21.9252 62.5903 22.533L64.6795 26.8245ZM60.1716 17.8529V21.6277C60.3192 21.6126 60.7331 21.5993 60.9119 21.5838C61.7558 21.5399 62.6028 20.9166 62.6028 19.5257C62.6028 18.4606 62.0099 17.8529 60.9559 17.8529H60.1716ZM56.7616 22.0881V26.3672C55.8111 26.7368 54.8167 27.0031 53.8097 27.0031C50.7542 27.0031 48.8249 24.6349 48.8249 21.5838C48.8249 18.7582 50.7542 16.2835 53.8661 16.2835C54.8324 16.2835 55.7954 16.6406 56.3883 17.0823L55.8111 18.3134C55.3343 18.0158 54.5908 17.7652 53.9101 17.7652C52.0153 17.7652 50.7228 19.2594 50.7228 21.612C50.7228 24.071 52.2035 25.5245 53.7344 25.5245C54.2081 25.5245 54.6065 25.4619 54.9798 25.2739V22.0881H56.7616ZM43.8151 27.0031C41.1015 27.0031 39.4107 24.591 39.4107 21.4961C39.4107 18.5953 41.2772 16.2835 43.8151 16.2835C46.3498 16.2835 48.2195 18.5953 48.2195 21.4961C48.2195 24.591 46.5286 27.0031 43.8151 27.0031ZM43.8151 25.5245C45.6659 25.5245 46.3184 23.4821 46.3184 21.4961C46.3184 19.5884 45.5781 17.7652 43.8151 17.7652C42.0489 17.7652 41.3086 19.5884 41.3086 21.4961C41.3086 23.4821 41.9611 25.5245 43.8151 25.5245ZM38.3284 17.8529H35.3607V20.6973H38.2688V22.0881H35.3607V25.4337H38.8617V26.8245H33.582V16.4621H38.3284V17.8529ZM31.9664 22.0881V26.3672C31.0159 26.7368 30.0246 27.0031 29.0145 27.0031C25.9622 27.0031 24.036 24.6349 24.036 21.5838C24.036 18.7582 25.9622 16.2835 29.0772 16.2835C30.0372 16.2835 31.0034 16.6406 31.5963 17.0823L31.0159 18.3134C30.5454 18.0158 29.8019 17.7652 29.1212 17.7652C27.2201 17.7652 25.9308 19.2594 25.9308 21.612C25.9308 24.071 27.4146 25.5245 28.9455 25.5245C29.416 25.5245 29.8176 25.4619 30.1877 25.2739V22.0881H31.9664ZM78.5515 3.05478H80.3177V12.0264H83.8312V13.4172H78.5515V3.05478ZM73.2468 3.05478H74.7306L78.0339 13.4172H76.0482L75.2325 10.5886H72.1049L71.1983 13.4172H69.658L73.2468 3.05478ZM72.566 9.31987H74.9659C74.58 7.95408 74.2099 6.69793 73.7926 5.0972C73.3942 6.69793 72.977 7.95408 72.566 9.31987ZM69.1812 13.4172H67.8919C66.201 11.0365 64.5258 8.66517 62.8475 5.98684L62.8374 13.4172H61.4132V3.05478H62.6994C64.3934 5.42299 66.0686 7.77866 67.7281 10.4413L67.7595 3.05478H69.1805V13.4172H69.1812ZM55.924 13.5957C53.2105 13.5957 51.5196 11.1836 51.5196 8.08866C51.5196 5.18479 53.3893 2.8761 55.924 2.8761C58.4619 2.8761 60.3316 5.18479 60.3316 8.08866C60.3316 11.1836 58.6407 13.5957 55.924 13.5957ZM55.924 12.1171C57.7812 12.1171 58.4305 10.0716 58.4305 8.08866C58.4305 6.1778 57.6902 4.3578 55.924 4.3578C54.161 4.3578 53.4207 6.1778 53.4207 8.08866C53.4207 10.0716 54.0732 12.1171 55.924 12.1171ZM50.4405 13.4171H48.6755V3.05248H50.4405V13.4171ZM43.5892 13.4171V4.44551H40.8631V3.05466H48.0971V4.44551H45.3679V13.4171H43.5892ZM37.1238 3.05466H38.6076L41.9109 13.4171H39.9283L39.1126 10.5884H35.985L35.0784 13.4171H33.5381L37.1238 3.05466ZM36.443 9.31975H38.8428C38.4601 7.95396 38.09 6.69781 37.6727 5.09708C37.2712 6.69781 36.8571 7.95396 36.443 9.31975ZM33.0613 13.4171H31.772C30.0811 11.0364 28.4059 8.66505 26.7307 5.98672L26.7182 13.4171H25.294V3.05466H26.5802C28.2742 5.42286 29.9462 7.77854 31.6088 10.4412L31.6402 3.05466H33.0613L33.0613 13.4171Z" fill="white"/>
</g>
<defs>
<clipPath id="clip0_7_66">
<rect width="100" height="43" fill="white"/>
</clipPath>
</defs>
</svg>
