<svg width="1589" height="828" viewBox="0 0 1589 828" fill="none" xmlns="http://www.w3.org/2000/svg">
<g clip-path="url(#clip0_7_95)">
<mask id="mask0_7_95" style="mask-type:luminance" maskUnits="userSpaceOnUse" x="0" y="0" width="1589" height="828">
<path d="M0 0H1589V828H0V0Z" fill="white"/>
</mask>
<g mask="url(#mask0_7_95)">
<path fill-rule="evenodd" clip-rule="evenodd" d="M720.027 211.708C716.676 225.029 711.845 237.94 708.656 251.283C720.106 251.202 731.596 251.868 743.026 250.851C736.95 230.634 731.536 210.238 726.324 189.785C723.134 196.759 722.213 204.44 720.027 211.708ZM718.04 158.908H740.659C740.92 161.436 741.362 163.923 742.002 166.373C757.363 214.86 772.864 263.312 787.881 311.897C778.078 312.015 768.252 312.367 758.487 311.524C754.998 297.813 750.827 284.274 747.015 270.658C731.777 270.501 716.538 270.52 701.296 270.658C697.147 284.371 692.515 297.949 688.565 311.741C681.064 312.055 673.545 312.171 666.047 311.937C682.849 260.763 700.776 209.943 718.04 158.908Z" fill="white"/>
<path fill-rule="evenodd" clip-rule="evenodd" d="M776.051 158.908H881.647C881.747 165.883 881.587 172.857 881.386 179.831C868.21 179.733 855.037 179.382 841.882 179.97C841.963 223.991 842.043 268.032 841.822 312.055C833.12 312.29 824.397 312.269 815.715 311.937C815.756 267.897 815.795 223.855 815.694 179.812C802.48 179.557 789.247 179.733 776.03 179.697C776.012 172.779 775.991 165.843 776.051 158.908Z" fill="white"/>
<path fill-rule="evenodd" clip-rule="evenodd" d="M539.437 161.201C545.895 160.731 552.372 160.574 558.848 160.869C579.842 190.156 600.236 219.896 619.746 250.165C623.976 256.415 627.346 263.271 632.479 268.914C632.459 232.866 632.337 196.816 632.538 160.789C639.437 160.574 646.355 160.632 653.254 160.947C653.313 211.902 653.354 262.859 653.233 313.817C647.178 313.895 641.06 314.426 635.026 313.661C632.137 311.8 630.755 308.489 628.749 305.845C606.71 274.283 584.735 242.622 564.624 209.826C563.5 208.22 562.298 206.672 560.995 205.203C560.531 241.409 560.954 277.653 560.773 313.877C553.675 314.013 546.537 314.347 539.458 313.367C539.779 262.646 539.839 211.922 539.437 161.201Z" fill="white"/>
<path fill-rule="evenodd" clip-rule="evenodd" d="M981.044 169.762C1001.24 161.16 1025.72 162.965 1043.93 175.268C1041.84 180.988 1039.19 186.475 1036.97 192.135C1030.35 191.431 1024.64 187.551 1018.06 186.573C1003.84 183.575 988.003 187.923 978.456 198.895C966.446 212.452 963.739 231.496 965.483 248.813C966.905 264.584 974.207 280.905 988.202 289.74C998.729 296.518 1012.42 296.518 1023.93 292.19C1024.1 277.045 1023.91 261.899 1024.03 246.777C1032.5 246.678 1041.02 246.07 1049.46 247.207C1049.14 267.17 1049.2 287.134 1049.4 307.096C1027.18 316.64 1000.35 320.754 977.836 309.919C959.248 301.417 946.594 283.668 941.442 264.604C936.608 246.051 936.95 225.87 944.248 207.966C950.825 191.235 964 176.738 981.044 169.762Z" fill="white"/>
<path fill-rule="evenodd" clip-rule="evenodd" d="M1212.92 189C1201.98 192.274 1194.74 202.226 1191.29 212.432C1185.83 228.635 1186.11 246.227 1189.32 262.842C1191.69 273.028 1195.72 283.648 1204.26 290.447C1215.45 299.398 1233.86 297.752 1242.88 286.565C1253.53 274.046 1255.64 257.003 1256.2 241.289C1255.98 225.617 1253.69 208.298 1242.28 196.347C1235.08 188.432 1223.09 186.219 1212.92 189ZM1209.54 168.117C1222.39 165.099 1236.28 167.137 1247.73 173.544C1262.27 181.401 1272.34 195.565 1277.63 210.708C1284.63 230.633 1283.75 252.615 1277.47 272.599C1272.5 287.643 1263.19 302.103 1248.86 310.115C1230.95 320.223 1207.05 319.5 1190.23 307.529C1173.4 295.95 1164.82 275.966 1161.95 256.611C1158.12 233.826 1162.11 209.004 1176.39 190.177C1184.27 179.283 1196.24 171.211 1209.54 168.117Z" fill="white"/>
<path fill-rule="evenodd" clip-rule="evenodd" d="M1076.79 169.233C1098.55 168.861 1120.3 169.193 1142.06 169.037C1142.32 175.542 1142.4 182.046 1142.24 188.55C1128.75 188.589 1115.25 188.706 1101.76 188.453C1101.04 201.559 1101.46 214.685 1101.56 227.811C1114.59 228.105 1127.64 228.105 1140.7 227.811C1141.76 234.296 1141.28 240.879 1141.14 247.423C1128.02 247.578 1114.89 247.599 1101.78 247.402C1100.95 262.94 1101.54 278.515 1101.5 294.05C1117.58 294.266 1133.68 293.796 1149.78 294.304C1149.6 300.652 1149.6 307.001 1149.78 313.347C1125.42 313.896 1100.99 313.915 1076.65 313.347C1077.01 265.31 1076.73 217.271 1076.79 169.233Z" fill="white"/>
<path fill-rule="evenodd" clip-rule="evenodd" d="M510.783 355.176C538.136 352.608 565.327 348.592 592.717 346.438C604.887 421.216 617.579 495.941 629.933 570.702C630.333 572.484 630.994 574.208 631.617 575.932C650.285 500.837 670.919 426.196 689.766 351.119C712.607 350.63 735.546 350.298 758.386 351.296C777.857 422.667 798.57 493.747 818.341 565.04C818.943 567.176 819.804 569.192 820.909 571.152C832.175 496.252 842.563 421.237 853.633 346.32C877.176 349.514 900.615 353.511 924.117 357.076C903.362 460.714 881.304 564.138 860.732 667.816C849.701 668.639 838.614 669.068 827.567 668.385C808.957 667.541 790.328 669.795 771.76 668.011C755.399 609.061 738.815 550.148 722.373 491.198C721.21 486.692 719.967 482.205 718.081 477.935C701.819 541.354 684.995 604.652 668.732 668.07C649.483 669.011 630.213 668.088 610.943 668.481C600.535 668.443 590.068 669.404 579.722 667.737C557.485 563.413 533.161 459.48 510.783 355.176Z" fill="white"/>
<path fill-rule="evenodd" clip-rule="evenodd" d="M1060.45 351.452C1086.82 351.688 1113.17 351.434 1139.54 351.59C1139.55 436.89 1139.37 522.213 1139.62 607.512C1172.48 607.749 1205.32 607.218 1238.17 607.786C1238.33 627.868 1238.25 647.969 1238.23 668.07C1230.37 669.461 1222.41 668.345 1214.51 668.285C1165 669.109 1115.49 667.932 1065.98 668.578C1064.56 668.463 1061.69 668.226 1060.27 668.108C1059.85 611.312 1060.21 554.519 1060.09 497.722C1060.35 448.979 1059.59 400.195 1060.45 351.452Z" fill="white"/>
<path fill-rule="evenodd" clip-rule="evenodd" d="M1343.14 409.952C1342.98 475.878 1343.18 541.824 1343.04 607.767C1358.14 608.297 1374.12 609.335 1388.12 602.694C1406.47 594.289 1418.34 576.656 1424.89 558.495C1436.31 525.934 1435.88 489.572 1424.31 457.109C1417.86 439.574 1406.73 422.139 1388.86 414.028C1374.48 407.544 1358.38 410.678 1343.14 409.952ZM1263.03 351.14C1285.59 350.474 1308.13 351.746 1330.69 351.59C1356.76 352.394 1383.29 349.943 1408.87 356.232C1434.72 362.051 1459.02 374.982 1477.05 394.123C1503.6 421.453 1515.65 459.422 1517.27 496.468V507.088C1515.83 527.209 1512.74 547.406 1505.32 566.332C1493.41 598.364 1471.67 627.479 1441.98 645.795C1416.91 661.762 1386.62 668.462 1356.94 668.305C1325.64 668.148 1294.34 668.541 1263.06 668.088C1263.01 562.453 1263.03 456.795 1263.03 351.14Z" fill="white"/>
<path fill-rule="evenodd" clip-rule="evenodd" d="M943.085 352.608C969.373 352.57 995.642 352.493 1021.93 352.628C1022.07 457.834 1021.95 563.021 1021.99 668.206C995.681 668.835 969.373 668.578 943.085 668.325C942.785 563.099 942.764 457.834 943.085 352.608Z" fill="white"/>
<path fill-rule="evenodd" clip-rule="evenodd" d="M122.096 212.53C121.574 220.113 121.774 227.713 121.774 235.314C121.733 362.933 121.834 490.531 121.733 618.13C207.557 618.502 293.379 617.975 379.222 618.387C379.423 616.074 379.562 613.763 379.644 611.45C379.603 478.543 379.624 345.614 379.624 212.686C293.779 212.608 207.938 212.942 122.096 212.53ZM69.5193 161.495C190.332 161.789 311.166 161.633 432 161.572C432.26 271.716 432.019 381.878 432.119 492.039C431.859 551.442 432.6 610.862 431.738 670.244H69.5193V161.495Z" fill="#FDD527"/>
</g>
</g>
<defs>
<clipPath id="clip0_7_95">
<rect width="1589" height="828" fill="white"/>
</clipPath>
</defs>
</svg>
